<?xml version="1.0" encoding="utf-8"?>
<!-- Generator: Adobe Illustrator 16.0.0, SVG Export Plug-In . SVG Version: 6.00 Build 0)  -->
<!DOCTYPE svg PUBLIC "-//W3C//DTD SVG 1.1//EN" "http://www.w3.org/Graphics/SVG/1.1/DTD/svg11.dtd">
<svg version="1.1" id="Layer_1" xmlns="http://www.w3.org/2000/svg" xmlns:xlink="http://www.w3.org/1999/xlink" x="0px" y="0px"
	 width="1024px" height="768px" viewBox="0 0 1024 768" enable-background="new 0 0 1024 768" xml:space="preserve">
<g>
	<g>
		<path fill-rule="evenodd" clip-rule="evenodd" fill="#007037" d="M391.226,358.716c18.057-1.091,35.292,2.832,52.261,8.34
			c7.382,2.396,14.529,5.636,22.025,7.535c15.459,3.916,30.775,6.212,47.032,2.062c15.245-3.893,30.052-7.887,42.886-17.318
			c0.533-0.393,1.18-0.645,1.668-1.081c7.119-6.365,15.031-12.063,21.153-19.278c11.752-13.85,19.398-29.939,21.831-48.207
			c0.283-2.131,1.062-4.215,1.183-6.345c0.353-6.21,1.484-12.599,0.487-18.614c-1.775-10.704-3.122-21.735-8.828-31.35
			c-3.955-6.667-7.58-13.772-12.73-19.427c-6.864-7.536-13.339-15.863-23.234-20.064c-10.051-4.267-19.984-8.098-31.193-9.29
			c-23.381-2.485-43.146,3.475-60.161,19.957c-9.813,9.506-16.742,20.544-18.942,33.663c-2.385,14.223-0.865,28.218,7.149,41.206
			c6.074,9.842,14.31,17.055,24.736,20.423c19.753,6.382,43.48,1.885,49.89-22.785c2.284-8.794-2.825-19.12-10.821-21.382
			c-4.792-1.356-8.252,1.771-7.35,6.641c1.461,7.878-4.032,13.755-11.844,14.821c-10.562,1.443-17.204-4.27-21.788-11.778
			c-4.874-7.984-6.936-17.326-2.503-26.672c6.403-13.498,15.823-24.451,30.964-27.054c17.773-3.054,34.549,0.078,48.496,13.257
			c9.793,9.255,16.338,20.396,19.044,33.188c3.015,14.246,2.371,28.577-3.79,42.41c-7.972,17.895-20.906,30.991-37.975,39.81
			c-9.046,4.673-24.998,8.368-33.475,8.432c-5.079,0.037-32.431-1.016-56.303-16.565c-9.914-6.457-17.043-15.178-24.012-24.221
			c-7.067-9.171-11.477-19.714-14.509-30.848c-4.199-15.417-4.447-30.838-2.153-46.717c2.355-16.302,9.179-30.483,18.039-43.707
			c4.928-7.356,12.066-13.219,18.12-19.835c11.312-12.362,25.55-20.304,41.216-25.065c14.483-4.402,29.107-9.92,44.742-7.698
			c8.484,1.205,16.87,3.243,25.217,5.25c19.712,4.739,36.892,14.375,52.468,27.223c17.24,14.219,29.748,31.771,37.881,52.481
			c2.779,7.075,5.996,14.149,7.467,21.532c3.414,17.146,7.393,34.338,1.865,51.983c-2.852,9.105-4.211,18.668-6.779,27.876
			c-4.611,16.536-12.69,31.495-24.116,44.139c-9.517,10.53-20.802,19.44-30.755,29.605c-7.156,7.309-13.789,15.214-19.98,23.364
			c-10.051,13.229-14.99,28.937-18.048,44.859c-1.515,7.886-1.876,16.307-1.417,24.84c0.707,13.175,4.047,25.271,8.82,37.012
			c6.194,15.236,15.885,28.284,29.217,38.299c10.686,8.026,22.176,14.439,35.264,17.758c11.411,2.893,23.215,4.089,34.578,2.261
			c17.244-2.774,33.679-8.362,46.847-21.099c10.208-9.874,19.245-20.41,22.325-34.603c2.379-10.966,5.077-21.707,2.338-33.52
			c-2.326-10.03-4.592-19.842-10.695-28.021c-15.368-20.595-37.149-30.04-60.938-23.999c-15.907,4.04-28.942,13.882-32.445,31.639
			c-1.923,9.748-1.501,19.507,4.442,28.256c5.08,7.477,17.875,11.275,25.869,6.971c2.145-1.155,4.092-4.109,4.49-6.511
			c0.221-1.327-2.673-3.799-4.647-4.756c-7.81-3.783-10.196-10.76-6.095-18.413c4.568-8.521,12.088-13.451,21.206-13.2
			c7.257,0.199,14.406,3.62,20.04,9.031c8.906,8.554,12.201,18.735,12.36,31.245c0.229,17.991-8.464,30.244-21.771,40.147
			c-9.078,6.757-20.043,10.776-31.028,10.813c-16.237,0.057-31.655-4.397-44.306-15.855c-10.387-9.408-18.783-19.95-23.638-33.338
			c-4.839-13.345-5.888-26.878-3.265-40.631c2.314-12.135,6.75-23.776,14.178-33.59c10.927-14.437,24.521-25.687,41.439-33.291
			c18.127-8.147,37.12-7.329,55.413-5.168c18.033,2.13,34.78,10.483,48.498,23.519c11.883,11.292,22.919,23.096,29.544,38.443
			c9.137,21.166,13.405,42.846,8.981,65.908c-2.476,12.902-4.951,25.855-11.515,37.28c-5.168,8.994-11.574,17.337-17.965,25.554
			c-12.891,16.573-29.907,27.698-49.075,35.748c-15.772,6.623-32.248,10.192-49.336,9.753c-26.89-0.691-52.716-5.747-75.563-21.07
			c-14.508-9.729-27.831-20.602-38.652-34.691c-14.037-18.278-22.736-38.738-28.176-60.814c-2.25-9.131-3.983-18.388-5.98-27.581
			c-3.129-14.409-10.619-26.766-18.727-38.726c-10.279-15.162-24.469-26.083-40.872-33.601c-12.46-5.711-25.677-9.475-39.798-9.574
			c-14.23-0.101-28.229,0.785-41.539,6.044c-28.032,11.074-48.229,30.343-56.195,59.713c-6.735,24.832-5.243,49.647,10.623,71.345
			c9.734,13.312,22.165,23.763,38.68,28.2c18.753,5.039,36.762,3.722,53.272-7.102c18.484-12.118,27.167-29.664,24.112-51.455
			c-1.847-13.18-9.677-28.275-29.762-32.827c-10.678-2.42-23.757,4.248-27.646,12.869c-0.907,2.01-1.31,4.532-1.063,6.72
			c0.581,5.156,4.712,7.278,9.269,4.785c10.957-5.995,19.044-1.828,21.614,4.858c1.758,4.577,1.98,10.104,1.546,15.091
			c-0.985,11.316-14.619,19.504-22.321,22.158c-12.994,4.479-23.988-0.158-33.727-6.911c-9.671-6.705-16.731-16.193-19.71-28.425
			c-4.636-19.038,0.045-35.39,11.295-50.941c10.181-14.074,24.075-21.409,40.37-25.025c26.987-5.987,49.851,2.194,69.712,20.68
			c11.996,11.164,20.24,24.587,24.511,40.277c5.628,20.677,3.995,40.999-4.107,60.871c-4.036,9.896-9.261,18.709-16.986,26.418
			c-7.519,7.503-14.333,15.571-23.461,21.359c-12.503,7.927-25.798,13.589-40.524,15.473c-7.196,0.921-14.471,1.967-21.689,1.829
			c-14.195-0.271-27.879-3.635-40.873-9.339c-29.469-12.936-50.376-34.901-63.808-63.631c-5.04-10.78-6.98-23.019-10.247-34.617
			c-3.858-13.699-1.177-27.212,1.223-40.75c2.51-14.156,6.652-27.779,14.102-40.107c6.905-11.426,13.148-23.352,24.241-31.771
			c6.934-5.262,12.668-12.13,19.699-17.232c7.038-5.106,14.625-9.927,22.678-13.051c12.128-4.705,24.727-8.455,37.409-11.379
			C375.721,358.336,383.599,359.071,391.226,358.716z"/>
	</g>
</g>
</svg>
