<?xml version="1.0" encoding="utf-8"?>
<!-- Generator: Adobe Illustrator 16.0.0, SVG Export Plug-In . SVG Version: 6.00 Build 0)  -->
<!DOCTYPE svg PUBLIC "-//W3C//DTD SVG 1.1//EN" "http://www.w3.org/Graphics/SVG/1.1/DTD/svg11.dtd">
<svg version="1.1" id="Layer_1" xmlns="http://www.w3.org/2000/svg" xmlns:xlink="http://www.w3.org/1999/xlink" x="0px" y="0px"
	 width="1024px" height="768px" viewBox="0 0 1024 768" enable-background="new 0 0 1024 768" xml:space="preserve">
<g>
	<g>
		<path fill="#FFBF63" d="M991.681,431.131V306.913c0-10.683-6.927-14.477-12.852-14.477c-0.342,0-33.901,0.5-33.901,18.19
			c0,3.663,1.278,8.379,6.948,11.309c-0.023,15.685-0.204,50.778-0.698,68.616c-0.937-0.091-1.877-0.128-2.824-0.128
			c-8.405,0-16.401,3.674-22.411,9.702c0.184-22.72,0.644-67.551,0.917-94.295c0,0,0.242-24.362,0.242-24.922
			c0-9.871-6.692-14.283-13.326-14.283c-0.36,0-35.439,0.842-35.439,19.614c0,7.703,5.06,10.931,7.226,12.216
			c0.287,5.751,0.551,35.066,0.512,101.575c-5.497-5.556-13.561-9.607-24.029-9.607c-10.232,0-19.442,3.878-25.998,10.399
			c-1.086-5.935-4.965-8.821-9.009-9.741c1.587-3.029,2.765-6.923,3.04-11.927c0.576-10.701-4.107-22.519-11.623-29.376
			c-0.85-0.79-3.426-3.167-7.393-3.167c-3.088,0-6.074,1.583-7.835,4.109c-1.826,2.645-2.197,5.9-1.068,9.213
			c-1.67,1.185-3.378,2.052-3.777,2.213c-0.479,0.162-0.943,0.369-1.393,0.604c-1.59,0.852-3.07,1.938-4.393,3.218
			c-0.202-2.814-0.433-5.58-0.641-8.163c-1.118-13.416-2.567-29.438-3.659-41.217c2.62,1.47,5.543,2.574,8.707,3.263
			c1.919,0.412,3.872,0.625,5.856,0.625c12.265,0,24.155-8.006,28.961-19.471c5.701-13.665,1.063-30.57-10.779-39.317
			c-7.042-5.209-16.096-8.078-25.469-8.078c-5.574,0-11.118,1.051-16.045,3.043c-3.691,1.493-7.229,3.461-10.192,5.698
			c-2.958,2.211-5.332,5.051-7.245,7.328l-0.781,0.917c-11.753,13.816-13.853,37.82-13.31,48.597
			c0.247,5.357,2.088,19.177,5.423,41.133c-2.438-0.809-5.299-1.305-8.692-1.305c-0.969,0-1.93,0.042-2.871,0.114
			c-10.682,0.854-21.76,7.07-27.562,15.47c-3.393,4.862-2.167,8.901-1.132,10.864c1.645,3.151,4.89,5.108,8.477,5.108
			c1.981,0,3.697-0.607,4.903-1.214c0.91,0.974,1.667,1.943,2.151,2.629c-6.818,1.738-13.901,4.924-18.339,9.827
			c-4.221-7.319-11.764-11.398-21.846-11.398c-2.145,0-4.192,0.234-6.12,0.708c-0.499-23.431-0.86-68.006-1.023-104.796
			c0-11.689-8.659-12.951-12.38-12.951c-0.327,0-32.432,0.772-34.122,17.552c-0.475-0.047-0.947-0.079-1.409-0.079
			c-0.351,0-33.901,0.503-33.901,18.194c0,3.663,1.271,8.378,6.946,11.314c-0.022,16.029-0.216,52.067-0.698,70.185
			c-0.942-0.091-1.883-0.128-2.826-0.128c-8.012,0-15.768,3.42-21.713,9.089v-41.624c0-10.68-6.938-14.472-12.858-14.472
			c-0.346,0-33.896,0.497-33.896,18.19c0,3.648,1.263,8.345,6.933,11.301c-0.027,5.538-0.16,12.243-0.352,17.674
			c-1.054-0.107-2.104-0.158-3.169-0.158c-8.393,0-16.449,3.692-22.496,9.797c-1.836-5.788-6.843-9.515-13.396-9.515
			c-5.686,0-15.195,0.521-22.32,3.501c-2.16-2.25-5.26-3.501-8.92-3.501c-22.627,0-34.114,5.288-34.114,15.701
			c0,5.103,2.155,8.924,6.419,11.408c0.084,0.583,0.162,1.535,0.162,3.09c0,1.006-0.014,2.022-0.014,3.019
			c-0.08,9.717-0.168,20.729,7.209,28.161c4.475,4.516,10.604,6.72,18.713,6.72c4.939,0,8.768-1.279,11.618-2.691
			c2.345,1.765,5.437,2.691,9.044,2.691c2.27,0,18.971-0.275,27.07-7.857c5.643,5.229,12.609,8.143,19.787,8.143
			c4.577,0,8.236-1.137,11.078-2.458c1.999,1.406,4.502,2.173,7.304,2.173c6.638,0,20.36-0.87,27.189-7.588
			c5.59,5.063,12.423,7.873,19.48,7.873c4.578,0,8.229-1.137,11.072-2.46c2.007,1.408,4.532,2.175,7.317,2.175
			c3.229,0,13.438-0.293,21.161-3.673c6.166,3.673,14.878,3.673,19.412,3.673c7.148,0,12.607-1.022,16.524-3.131
			c5.735,3.131,13.539,3.131,17.387,3.131c3.712,0,12.45,0,18.496-3.814c4.167,2.666,9.334,4.1,14.924,4.1
			c4.81,0,9.074-1.037,12.882-3.091c3.075,2.069,6.727,3.091,11.02,3.091c6.079,0,11.982-2.505,16.37-6.308
			c1.714,2.127,4.316,3.499,7.263,3.499h14.679c1.982,0,3.814-0.645,5.332-1.715c6.246,4.211,15.969,4.238,20.651,4.238
			c11.167,0,18.736-2.324,22.617-6.926c6.071,4.687,13.814,7.211,22.434,7.211c6.418,0,15.274-2.3,21.859-6.656
			c1.885,2.062,4.791,4.024,9.252,5.159c4.195,1.092,8.718,1.22,12.19,1.22l3.882,0.013c11.317,0,17.216-3.031,20.215-6.697
			c5.395,4.484,11.824,6.962,18.436,6.962c4.597,0,8.266-1.148,11.071-2.458c2.015,1.409,4.523,2.173,7.315,2.173
			c7.32,0,31.237-1.227,31.237-17.045C996.736,435.977,993.663,432.724,991.681,431.131z M768.356,299.703
			c-0.035,2.5,0.096,4.822,0.284,6.821l0.483,5.317c1.082,11.773,2.923,31.509,4.244,47.493c0.388,4.753,0.785,10.163,1.146,15.273
			c-3.508-22.341-7.534-49.22-7.896-56.332C766.359,312.788,766.964,306.039,768.356,299.703z M743.327,377.742
			c0.461-0.034,0.93-0.055,1.402-0.055c0.063,0,0.137,0,0.186,0c-0.518,0.709-0.955,1.496-1.268,2.351
			c-0.07,0.186-0.142,0.364-0.189,0.556c-0.595-0.813-1.288-1.675-2.041-2.576C742.066,377.882,742.706,377.789,743.327,377.742z
			 M780.568,406.195c-0.592,2.537-0.861,4.628-0.908,7.171c-1.21-4.39-2.659-8.254-4.016-11.378c0.78-0.917,1.371-2.004,1.743-3.166
			c0.81,1.405,2.087,3.132,4.023,4.427C781.074,404.243,780.794,405.219,780.568,406.195z M811.416,376.185
			c0.051,0.677,0.056,1.325,0.02,1.946c-0.035,0.583-0.083,1.118-0.156,1.591c-0.789-0.771-1.71-1.387-2.729-1.834
			C809.446,377.395,810.416,376.826,811.416,376.185z"/>
		<path fill="#FFFFFF" stroke="#000000" stroke-width="2" stroke-miterlimit="10" d="M571.927,432.328
			c0,6.667,5.039,4.483,5.039,9.431c0,7.237-20.847,7.715-21.898,7.715c-4.85,0-1.428-5.245-4.563-5.245
			c-0.854,0-2.306,1.333-4.49,2.765c-2.185,1.337-5.134,2.764-9.328,2.764c-12.477,0-22.204-13.231-22.204-24.957
			c0-12.662,10.293-25.05,23.441-25.05c6.57,0,10.275,2.857,11.346,2.857c1.437,0,1.524-32.044,1.524-33.1
			c0-5.901-6.964-2.755-6.964-7.902c0-7.049,24.292-8.86,24.577-8.86c2.858,0,3.521,2.001,3.521,5.142V432.328z M545.345,410.134
			c-6.371,0-7.516,10.949-7.516,15.432c0,4.477,1.145,12.287,7.04,12.287c6.396,0,6.021-11.719,6.021-15.918
			C550.89,418.23,550.89,410.134,545.345,410.134z"/>
		<path fill="#FFFFFF" stroke="#000000" stroke-width="2" stroke-miterlimit="10" d="M636.98,432.328
			c0,6.667,5.044,4.483,5.044,9.431c0,7.237-20.847,7.715-21.897,7.715c-4.854,0-1.436-5.245-4.573-5.245
			c-0.849,0-2.284,1.333-4.488,2.765c-2.192,1.337-5.135,2.764-9.328,2.764c-12.479,0-22.197-13.231-22.197-24.957
			c0-12.662,10.292-25.05,23.438-25.05c6.566,0,10.292,2.857,11.344,2.857c1.424,0,1.512-84.596,1.512-85.65
			c0-5.904-6.96-2.749-6.96-7.905c0-7.047,24.298-8.857,24.584-8.857c2.859,0,3.523,2,3.523,5.143V432.328z M610.397,410.134
			c-6.374,0-7.517,10.949-7.517,15.432c0,4.477,1.143,12.287,7.04,12.287c6.393,0,6.012-11.719,6.012-15.918
			C615.933,418.23,615.933,410.134,610.397,410.134z"/>
		<path fill="#FFFFFF" stroke="#000000" stroke-width="2" stroke-miterlimit="10" d="M705.268,434.23
			c0,8.097,4.675,6.098,4.675,9.812c0,5.531-12.199,5.431-15.714,5.431c-2.938,0-14.478,0-14.478-4.862
			c0-2.76,2.672-2.663,3.435-7.528c0.572-3.038,0.661-6.374,0.661-9.521c0-4.762-0.089-13.722-6.853-13.722
			c-5.827,0-5.635,4.963-5.635,9.254v11.042c0,7.907,3.832,6.288,3.832,9.714c0,5.529-10.878,5.624-14.491,5.624
			c-13.624,0-16.761-2.855-16.761-5.81c0-3.813,3.705-2.092,5.324-8.272c1.144-4.497,1.144-17.066,1.144-22.31
			c0-4.284-0.285-107.604-0.378-111.893c-0.197-6.76-5.909-4.376-5.909-8.866c0-7.62,24.768-9.608,24.868-9.608
			c2.848,0,3.037,0.861,3.037,3.619c0,0,0.512,114.913,1.725,121.891c2.869,0,4.096-8.476,14.762-8.476
			c17.523,0,16.285,16.478,16.374,19.147L705.268,434.23z"/>
		<path fill="#FFFFFF" stroke="#000000" stroke-width="2" stroke-miterlimit="10" d="M826.995,430.804
			c0,11.239,5.624,7.146,5.624,12.196c0,6.474-12.097,6.474-16.392,6.474c-16.385,0-17.05-3.716-17.05-5.999
			c0-3.435,3.921-3.624,5.061-6.57c1.234-3.334,1.421-17.147,0.381-20.677c-0.859-3.334-5.731-2.295-5.731-6.574
			c0-6.754,24.205-9.619,25.156-9.619c2.858,0,2.951,2.196,2.951,4.194V430.804z"/>
		<path fill="#FFFFFF" stroke="#000000" stroke-width="2" stroke-miterlimit="10" d="M858.81,426.521
			c-1.043,0-2.572-0.292-2.572,1.344c0,4.749,6.184,8.745,10.675,8.745c7.14,0,12.636-4.281,14.643-4.281
			c2.018,0,1.74,2.956,1.74,4.755c0,7.35-13.437,12.674-22.017,12.674c-17.139,0-25.991-12.377-25.991-24.668
			c0-14.671,12.459-25.339,26.757-25.339c16.197,0,23.35,12.493,23.35,19.624c0,6.288-0.872,7.146-3.945,7.146H858.81z
			 M867.105,414.504c0-3.419-2.1-6.083-5.638-6.083c-3.133,0-5.709,3.239-5.709,6.272c0,3.442,3.242,2.678,5.709,2.678
			C864.05,417.371,867.105,417.95,867.105,414.504z"/>
		<path fill="#FFFFFF" stroke="#000000" stroke-width="2" stroke-miterlimit="10" d="M916.54,431.375
			c0,1.716-0.104,4.855,0.375,6.383c1.051,3.434,5.327,1.809,5.327,5.808c0,6.385-11.622,5.908-15.718,5.908
			c-4.281,0-17.617,0.477-17.617-6.283c0-3.34,4.092-2.098,5.248-5.635c1.229-3.894,1.229-15.8,1.229-20.469
			c0-3.721,0.194-116.557-0.666-120.84c-1.438-7.049-7.046-4.573-7.046-10.007c0-8.285,24.775-10.28,26.103-10.28
			c3.239,0,3.997,2.09,3.997,4.948c0,2.196-1.232,118.365-1.232,131.986V431.375z"/>
		<path fill="#FFFFFF" stroke="#000000" stroke-width="2" stroke-miterlimit="10" d="M982.357,432.328
			c0,6.667,5.044,4.483,5.044,9.431c0,7.237-20.858,7.715-21.902,7.715c-4.858,0-1.433-5.245-4.572-5.245
			c-0.859,0-2.283,1.333-4.488,2.765c-2.186,1.337-5.135,2.764-9.326,2.764c-12.477,0-22.211-13.231-22.211-24.957
			c0-12.662,10.308-25.05,23.452-25.05c6.564,0,10.29,2.857,11.343,2.857c1.424,0,1.517-83.028,1.517-84.077
			c0-5.907-6.96-2.761-6.96-7.904c0-7.051,24.298-8.863,24.576-8.863c2.859,0,3.528,2.005,3.528,5.149V432.328z M955.774,410.134
			c-6.377,0-7.515,10.949-7.515,15.432c0,4.477,1.138,12.287,7.036,12.287c6.397,0,6.01-11.719,6.01-15.918
			C961.306,418.23,961.306,410.134,955.774,410.134z"/>
	</g>
	<path fill="#EE5929" d="M722.516,380.957c0,0,3.986-3.957,8.496-0.182c3.281,2.733,5.986,6.664,6.586,7.877
		c0,0,5.139,7.117,12.479,2.555c3.534-2.557,3.359-4.688,3.256-5.332c-0.118-0.644-0.4-2.153-0.854-2.541
		c-0.462-0.393,1.245,0.726,2.434-0.125c1.179-0.858,5.267-4.15,0.9-10.208c-3.034-4.226-8.504-4.926-13.21-4.561
		c-7.543,0.6-16.271,5.149-20.642,11.481C720.449,382.088,722.516,380.957,722.516,380.957"/>
	<path fill="#EE5929" d="M811.037,357.052c0,0,3.382,4.492-0.966,8.468c-3.138,2.868-7.4,5.021-8.672,5.456
		c0,0-7.749,4.144-4.211,12.015c2.066,3.861,4.204,3.975,4.868,3.948c0.641-0.034,2.182-0.103,2.612-0.508
		c0.46-0.401-0.879,1.147-0.2,2.428c0.708,1.287,3.423,5.783,10.014,2.272c4.567-2.458,6.017-7.771,6.27-12.497
		c0.419-7.55-2.934-16.806-8.621-21.995C810.204,354.854,811.037,357.052,811.037,357.052"/>
	<path fill="#EE5929" d="M810.016,293.469c-1.495,2.547-3.97,4.789-6.516,6.008c-0.641,0.322-1.306,0.101-0.756-0.844
		c0.487-0.832,0.548-1.766,0.179-2.808c-1.013-2.812-2.611-4.541-2.624-4.551c0.001-0.009-1.646-2.49-0.292-4.791
		c0.293-0.509,0.722-0.976,1.243-1.391c1.86-1.273,3.269-1.012,3.442-0.897c0.208,0.098,0.354,0.604,0.45,0.884l0.067,0.145
		c0.009,0.048,0.084,0.156,0.146,0.156c0.049,0.002,0.109-0.029,0.123-0.076c0.012-0.031,0.03-0.135,0.026-0.162
		c0.004-0.144,0.015-0.474,0.172-0.732c0.053-0.104,0.119-0.179,0.212-0.245c1.019-0.679,2.996-1.437,4.826,1.307
		c1.5,2.202,0.753,4.995-0.152,6.958C810.402,292.77,810.217,293.125,810.016,293.469"/>
	<path fill="#F89D32" d="M853.01,473.669c-0.656-1.759-1.439-3.438-2.361-5.033l-2.346-3.594c-3.124-4.196-7.144-7.64-11.703-10.085
		c-7.37-3.971-16.139-5.12-24.177-3.198c-2.017,0.498-3.932,1.149-5.869,2.004c-1.803,0.819-3.605,1.795-5.304,2.868
		c-3.409,2.193-6.474,4.845-9.087,7.873c-1.348,1.575-3.126,1.724-2.932,0.083c0.714-5.852,1.036-11.746,0.938-17.636h0.075
		c0.093-7.772-0.166-15.978-0.89-25.667c-0.546-7.269-0.516-9.465,0.304-12.986c2.019-8.719,9.52-15.243,9.278-16.459
		c-0.239-1.229-0.993-2.14-2.955-0.337c-1.966,1.807-7.485,4.598-8.787,4.268c-1.319-0.344-2.063-2.303-2.063-2.303
		s-1.277-20.304-2.476-34.898c-1.526-18.645-3.706-41.869-4.729-52.887c-0.555-6.081-0.25-13.025,1.928-18.764
		c1.637-4.306,4.54-8.212,8.712-10.338c5.601-2.819,12.589-2.69,18.285,0.12c2.514,1.244,4.107,2.683,5.687,5.079
		c1.931,2.902,1.949,6.418,1.397,9.826c-0.154,1.022-0.563,2.021-0.949,2.989c-0.941,2.29-2.398,3.992-4.914,5.417
		c-1.799,1.025-3.238,1.674-5.879,1.674c-1.549,0-3.182-0.58-4.632-1.135c-1.843-0.715-4.4-3.102-5.233-4.941
		c-1.342-3.029-1.535-6.512-0.142-9.539c0.882-1.874,2.491-4.049,4.671-5.105c2.536-1.212,5.31-1.249,7.427-0.611
		c0.793,0.247,1.473,0.497,2.06,0.752c0.631,0.271,2.252-0.163,0.504-1.892c-1.856-1.875-4.812-2.354-6.866-2.354
		c-2.565,0-4.675,0.318-7.253,1.623c-2.928,1.482-5.208,3.902-6.573,6.85c-1.17,2.488-1.795,5.573-1.795,8.316
		c0,9.072,5.978,15.199,14.62,17.091c9.823,2.146,20.445-4.279,24.23-13.326c4.043-9.681,0.776-21.95-7.706-28.225
		c-8.988-6.636-22.106-8.076-32.485-3.894c-2.819,1.15-5.669,2.71-8.093,4.527c-2.414,1.816-4.55,4.518-6.515,6.828
		c-8.275,9.728-11.74,29.392-11.104,42.086c0.639,12.703,11.186,77.244,11.186,77.244l-0.453,0.22l-4.422-2.652l-1.594,2.704
		c0,0,6.897,9.859,9.766,24.36c0,0,2.196,6.415,3.302,18.768c0.962,14.807-1.005,29.735-5.69,43.735
		c-0.993,2.951-3.94,7.836-4.639-1.117c-0.908-11.596-4.1-23.111-10.66-32.983c-3.297-4.91-7.32-9.362-11.934-13.147
		c-2.281-1.893-4.749-3.645-7.284-5.174c-2.654-1.609-5.345-2.894-8.24-3.984c-11.433-4.273-24.518-4.144-36.033,0.369
		c-11.541,4.5-21.547,13.065-27.421,24.519c-2.868,5.812-4.373,12.357-4.239,18.89c0.112,5.777,1.349,11.577,3.953,16.708
		c0.502,1.011,2.161,3.98,2.161,3.98c2.994,4.863,7.009,9.078,11.665,12.255c1.35,0.905,2.636,1.682,4.156,2.48l0.951,0.473
		l1.166,0.538c0.819,0.368,1.523,0.613,2.306,0.915c3.062,1.1,6.273,1.713,9.481,1.82c6.393,0.298,12.728-1.405,17.987-4.583
		c5.221-3.237,9.403-8.082,12.136-13.409c0.973-1.895,3.79-7.894,2.678-13.853c-1.459-7.764-8.937-12.892-16.701-11.427
		c-7.765,1.451-12.883,8.927-11.432,16.701c1.13,6.04,5.9,10.475,11.629,11.478l0.282,0.047c1.166,0.186,2.122,1.057,2.364,2.261
		c0.255,1.39-0.545,2.729-1.848,3.175c0,0-8.615,3.039-16.294,1.817c-2.407-0.464-4.731-1.254-6.91-2.29
		c-0.508-0.264-1.109-0.54-1.548-0.829l-0.726-0.408l-0.882-0.579c-0.914-0.625-1.984-1.421-2.902-2.2
		c-3.734-3.17-6.771-7.082-8.8-11.448c-4.118-8.706-4.378-18.999-0.617-27.872c0.892-2.207,2.122-4.382,3.542-6.477
		c1.417-2.06,3-4.036,4.791-5.824c3.539-3.608,7.796-6.543,12.458-8.602c9.357-4.168,20.326-4.828,30.234-1.615
		c2.47,0.78,4.937,1.803,7.162,2.982c2.4,1.273,4.622,2.694,6.785,4.266c4.281,3.17,8.148,6.961,11.376,11.269
		c6.52,8.563,10.511,19.159,11.27,30.112c0.73,10.297-1.438,20.832-6.226,30.211c-5.781,8.382-12.606,16.023-20.381,22.587
		c-13.804,11.68-30.38,19.96-47.956,24.01c-17.69,4.113-36.438,4.83-54.504,2.026c-18.111-2.757-35.649-9.145-51.531-18.335
		c-15.891-9.2-30.083-21.439-41.513-35.907c-11.373-14.48-20.149-31.086-25.546-48.822c-1.347-4.47-2.474-8.9-3.421-13.542
		c-1.068-4.731-2.129-9.697-3.457-14.479c-2.633-9.603-5.92-19.047-9.969-28.123c-5.145-11.632-11.424-22.786-18.783-33.133
		c-0.97-1.368,0.432-2.462,2.193-1.84c4.177,1.465,8.588,2.311,13.049,2.508c8.912,0.405,18.006-1.842,25.827-6.483
		c2.894-1.735,5.622-3.796,8.086-6.133c2.365-0.666,4.812-1.012,7.244-1.006c5.097,0,10.135,1.504,14.304,4.258
		c2.09,1.347,3.971,3.015,5.58,4.907c0.799,0.947,1.535,1.93,2.188,2.993c0.617,1.007,1.176,2.12,1.614,3.237
		c1.806,4.481,1.842,9.581,0.223,14.046c-0.802,2.232-2.018,4.3-3.591,6.046c-0.762,0.886-1.624,1.688-2.527,2.405
		c-0.937,0.729-1.894,1.378-2.894,1.855c-3.989,2.022-8.77,2.232-12.936,0.613c-2.095-0.817-4.002-2.096-5.567-3.711
		c-0.411-0.421-0.807-0.875-1.129-1.284l-0.283-0.391l-0.237-0.321c-0.134-0.193-0.279-0.455-0.427-0.697
		c-0.537-0.97-0.996-2.018-1.276-3.112c-0.802-3.528,0.32-7.615,0.32-7.615c0.158-0.61,0.769-1.03,1.421-0.948
		c0.552,0.06,0.998,0.485,1.104,1.024l0.044,0.125c0.646,2.613,2.857,4.687,5.681,5.016c3.645,0.437,6.952-2.181,7.387-5.829
		c0.419-3.641-2.183-6.947-5.836-7.369c-2.795-0.326-5.485,1.172-6.335,1.682c-2.377,1.435-4.484,3.529-5.82,6.058
		c-1.305,2.538-1.896,5.521-1.556,8.478c0.165,1.48,0.545,2.938,1.164,4.328c0.153,0.353,0.298,0.678,0.492,1.034l0.281,0.53
		l0.245,0.424c0.428,0.686,0.832,1.254,1.287,1.843c1.839,2.346,4.274,4.239,7.015,5.488c2.747,1.258,5.786,1.842,8.817,1.69
		c3.029-0.159,6.018-1.054,8.615-2.561c5.113-3.094,8.771-8.014,10.474-13.493c1.73-5.481,1.363-11.547-0.988-16.721
		c-0.589-1.266-1.275-2.489-2.101-3.679c-0.789-1.123-1.668-2.203-2.639-3.208c-1.903-2.01-4.085-3.735-6.468-5.101
		c-4.786-2.723-10.312-3.979-15.699-3.636c-1.883,0.096-1.749-3.388-0.483-5.257c1.324-1.971,2.432-3.998,3.376-6.151
		c3.716-8.603,4.125-18.631,1.127-27.629c-2.294-6.893-6.424-13.159-12.065-17.967l0.176,0.007c0.242-3.571,1.517-7.017,3.612-9.801
		c2.084-2.815,4.99-4.95,8.217-6.136c1.604-0.591,3.293-0.944,4.991-1.041c0.852-0.064,1.702-0.048,2.55,0.017
		c0.811,0.078,1.644,0.21,2.43,0.433c3.208,0.864,6.039,2.921,7.825,5.656c0.891,1.375,1.537,2.89,1.873,4.457
		c0.146,0.799,0.234,1.605,0.273,2.393c0.019,0.809-0.039,1.606-0.173,2.345c-0.529,3.037-2.37,5.745-4.981,7.374
		c-1.284,0.816-2.782,1.341-4.319,1.542c-0.397,0.057-0.812,0.089-1.173,0.093l-0.327-0.003l-0.272-0.006
		c-0.164,0.002-0.372-0.036-0.557-0.05c-0.765-0.098-1.518-0.288-2.252-0.578c-2.271-0.995-4.049-3.3-4.049-3.3
		c-0.259-0.357-0.252-0.852,0.057-1.173c0.265-0.289,0.68-0.348,1.023-0.193l0.09,0.028c1.708,0.73,3.733,0.362,5.078-1.064
		c1.742-1.836,1.658-4.713-0.165-6.455c-1.845-1.715-4.726-1.655-6.441,0.181c-1.327,1.42-1.606,3.506-1.688,4.173
		c-0.181,1.904,0.099,3.923,0.947,5.7c0.852,1.755,2.269,3.302,4.021,4.336c0.895,0.518,1.848,0.908,2.85,1.145
		c0.265,0.045,0.514,0.111,0.787,0.144l0.398,0.075l0.347,0.032c0.531,0.043,1.003,0.065,1.534,0.046
		c2.029-0.045,4.088-0.613,5.903-1.605c1.802-0.998,3.384-2.434,4.547-4.153c1.15-1.726,1.896-3.739,2.134-5.799
		c0.388-4.079-0.811-8.109-3.129-11.308c-2.312-3.2-5.794-5.491-9.604-6.333c-0.95-0.181-1.895-0.314-2.877-0.343
		c-0.944-0.04-1.894,0.006-2.841,0.127c-1.892,0.216-3.751,0.71-5.477,1.47c-3.463,1.505-6.42,4.031-8.446,7.138
		c-1.016,1.555-1.799,3.247-2.324,5c-0.502,1.727-4.263,2.542-6.225,1.407c-4.326-2.434-9.299-3.833-14.301-3.991
		c-4.992-0.147-10.002,0.931-14.513,3.057c-4.48,2.155-8.452,5.363-11.406,9.291c-0.745,0.992-1.405,1.929-2.063,3.069l-0.391,0.718
		l-0.469,0.877c-0.338,0.606-0.534,1.145-0.811,1.719c-0.949,2.313-1.533,4.76-1.75,7.205c-0.475,4.894,0.58,9.807,2.828,13.962
		c2.245,4.123,5.801,7.518,9.768,9.828c1.42,0.823,5.904,3.21,10.518,2.592c6-0.812,10.217-6.346,9.406-12.347
		c-0.805-6.011-6.344-10.217-12.35-9.419c-4.686,0.635-8.27,4.118-9.242,8.46l-0.064,0.223c-0.162,0.884-0.879,1.583-1.824,1.715
		c-1.059,0.149-2.066-0.528-2.352-1.528c0,0-1.996-6.72-0.759-12.565c0.456-1.836,1.163-3.574,2.03-5.198
		c0.229-0.381,0.467-0.838,0.689-1.167l0.357-0.526l0.476-0.66c0.505-0.691,1.163-1.468,1.799-2.133
		c2.577-2.756,5.69-4.919,9.112-6.305c6.824-2.818,14.736-2.606,21.368,0.625c1.653,0.772,3.263,1.8,4.823,2.971
		c1.538,1.165,2.977,2.46,4.289,3.896c2.62,2.854,4.705,6.234,6.085,9.895c2.827,7.326,2.895,15.751,0.062,23.225
		c-0.687,1.862-1.582,3.696-2.578,5.375c-1.054,1.776-2.228,3.431-3.536,5.023c-2.583,3.162-5.647,5.965-9.053,8.273
		c-6.819,4.651-15.106,7.299-23.521,7.447c-6.861,0.132-13.784-1.417-20.07-4.458c-2.759-3.529-5.642-6.968-8.688-10.274
		c-13.518-14.491-29.766-26.718-48.176-34.042l-1.199-0.408c-7.979-2.891-18.115-4.935-29.24-5.58
		c-8.045-0.465-17.27,0.066-22.955,0.873c-9.348,1.304-18.25,5.115-26.623,9.465c-2.688,1.407-5.294,2.946-7.875,4.582
		c-4.682,0.515-9.43-0.06-13.781-1.702c-5.326-1.988-10-5.54-13.3-10.042c-1.647-2.245-2.967-4.717-3.902-7.333
		c-0.47-1.291-0.845-2.613-1.128-3.983c-0.24-1.293-0.395-2.671-0.413-4.016c-0.139-5.387,1.813-10.734,5.263-14.773
		c1.732-2.022,3.82-3.706,6.123-4.932c1.148-0.619,2.366-1.123,3.607-1.513c1.245-0.394,2.52-0.689,3.746-0.81
		c4.965-0.553,10.038,1.092,13.757,4.418c1.869,1.668,3.374,3.75,4.376,6.082c0.262,0.567,0.514,1.22,0.662,1.768l0.162,0.528
		l0.107,0.42c0.078,0.243,0.115,0.593,0.182,0.892c0.188,1.232,0.248,2.499,0.111,3.769c-0.527,4.005-3.314,7.833-3.314,7.833
		c-0.415,0.58-1.195,0.781-1.84,0.447c-0.567-0.282-0.859-0.911-0.775-1.504l0.016-0.15c0.326-2.996-1.146-6.014-3.98-7.482
		c-3.657-1.868-8.127-0.424-10.002,3.222c-1.879,3.631-0.445,8.112,3.205,9.989c2.789,1.431,6.197,0.92,7.279,0.714
		c3.058-0.571,6.076-1.935,8.46-4.053c2.364-2.139,4.147-5.034,4.944-8.271c0.414-1.6,0.594-3.285,0.51-4.971
		c-0.055-0.429-0.058-0.825-0.137-1.279l-0.097-0.663l-0.091-0.546c-0.15-0.872-0.348-1.62-0.607-2.435
		c-1.016-3.158-2.809-6.105-5.176-8.488c-2.386-2.375-5.342-4.183-8.564-5.222c-3.217-1.028-6.701-1.249-10.011-0.67
		c-1.503,0.27-3.715-1.089-3.64-2.307c0.059-1.251-0.057-2.493-0.355-3.716c-0.582-2.434-1.899-4.716-3.769-6.452
		c-0.935-0.874-2.001-1.607-3.152-2.174c-0.567-0.278-1.185-0.527-1.782-0.72c-0.637-0.204-1.265-0.342-1.912-0.428
		c-2.622-0.327-5.355,0.346-7.542,1.867c-2.2,1.514-3.883,3.806-4.546,6.487c-0.312,1.375-0.307,2.818,0.045,4.182
		c0.352,1.367,1.025,2.634,1.953,3.687c0.937,1.036,2.118,1.85,3.408,2.342c0.323,0.124,0.632,0.22,0.996,0.309l0.208,0.058
		l0.28,0.054c0.188,0.042,0.354,0.055,0.521,0.078c0.706,0.08,1.409,0.047,2.071-0.083c1.377-0.251,2.613-0.929,3.559-1.857
		c0.942-0.94,1.563-2.165,1.889-3.406c0.101-0.454,0.396-1.847-0.148-3.048c-0.669-1.559-2.496-2.265-4.051-1.566
		c-1.559,0.691-2.259,2.513-1.573,4.068c0.53,1.21,1.749,1.907,3.017,1.828h0.053c0.25-0.019,0.496,0.118,0.617,0.359
		c0.111,0.277,0.008,0.593-0.238,0.759c0,0-1.649,1.061-3.329,1.193c-0.538,0.016-1.059-0.034-1.552-0.14
		c-0.137-0.039-0.268-0.06-0.368-0.092l-0.179-0.06l-0.207-0.079c-0.236-0.084-0.496-0.195-0.725-0.314
		c-0.94-0.478-1.777-1.156-2.402-1.959c-1.305-1.63-1.869-3.771-1.506-5.839c0.072-0.492,0.217-1.009,0.416-1.518
		c0.191-0.506,0.437-0.995,0.721-1.452c0.564-0.94,1.309-1.763,2.184-2.429c1.747-1.337,4.014-2.02,6.258-1.832
		c0.555,0.036,1.128,0.128,1.646,0.266c0.563,0.163,1.106,0.333,1.646,0.559c1.051,0.456,2.039,1.06,2.939,1.798
		c1.784,1.479,3.143,3.499,3.832,5.759c0.719,2.254,0.756,4.734,0.1,7.06l0.105,0.041c-4.66,1.783-8.725,4.847-11.724,8.719
		c-3.95,5.066-5.946,11.542-5.528,17.862c0.114,1.581,0.366,3.119,0.76,4.678c0.385,1.484-0.325,3.738-1.499,3.25
		c-3.347-1.44-7.148-1.894-10.815-1.23c-1.828,0.333-3.615,0.946-5.285,1.788c-0.82,0.423-1.637,0.913-2.392,1.449
		c-0.782,0.569-1.501,1.187-2.174,1.877c-2.661,2.757-4.262,6.536-4.386,10.417c-0.158,3.885,1.053,7.837,3.617,10.964
		c1.312,1.547,3.017,2.794,4.912,3.575c1.895,0.779,3.971,1.087,6,0.91c2.031-0.175,4.007-0.83,5.693-1.915
		c0.438-0.267,0.818-0.546,1.24-0.886l0.26-0.212l0.287-0.272c0.234-0.183,0.375-0.357,0.566-0.547
		c0.703-0.734,1.283-1.585,1.705-2.495c0.896-1.805,1.196-3.841,0.924-5.748c-0.276-1.915-1.147-3.723-2.344-5.178
		c-0.419-0.511-1.797-2.076-3.643-2.5c-2.425-0.548-4.828,0.963-5.385,3.38c-0.551,2.42,0.963,4.833,3.393,5.373
		c1.86,0.435,3.738-0.396,4.744-1.899l0.039-0.082c0.199-0.314,0.576-0.485,0.947-0.392c0.443,0.084,0.729,0.489,0.707,0.92
		c0,0-0.224,2.869-1.516,4.917c-0.443,0.647-0.956,1.203-1.523,1.708c-0.15,0.109-0.311,0.249-0.438,0.338l-0.207,0.166l-0.28,0.173
		c-0.285,0.187-0.662,0.395-1.005,0.56c-1.367,0.687-2.878,1.064-4.39,1.11c-3.019,0.085-6.024-1.122-8.106-3.32
		c-0.511-0.528-0.984-1.152-1.42-1.824c-0.416-0.665-0.787-1.366-1.07-2.096c-0.59-1.467-0.914-3.081-0.92-4.674
		c-0.031-3.211,1.141-6.448,3.312-8.901c0.536-0.608,1.135-1.191,1.763-1.691c0.663-0.527,1.343-0.995,2.073-1.414
		c1.441-0.831,3.019-1.479,4.66-1.872c3.287-0.808,6.826-0.63,10.068,0.518c1.56,0.55,3.021,1.312,4.381,2.271
		c1.062,2.047,2.316,3.98,3.767,5.742c3.94,4.72,9.23,8.201,15.004,9.959c2.882,0.874,5.871,1.328,8.864,1.343
		c1.27,0,1.929,1.015,0.992,1.668c-7.017,4.927-13.539,10.623-19.453,16.869c-4.618,4.871-8.841,10.134-12.673,15.684
		c-1.935,2.747-3.733,5.646-5.479,8.432c-1.653,2.74-3.375,5.304-5.249,7.839c-7.429,10.085-16.765,18.697-27.287,25.348
		c-10.536,6.646-22.342,11.241-34.544,13.516c-12.203,2.264-24.805,2.368-36.965,0.049c-12.156-2.301-23.926-6.974-34.267-13.588
		c-10.299-6.559-18.993-15.561-25.142-26.127c-3.475-5.928-6.098-12.346-7.893-18.988c-0.928-7.055,0.08-14.261,2.854-20.654
		c2.955-6.8,7.881-12.651,13.986-16.63c3.025-2.014,6.341-3.569,9.781-4.61c1.719-0.524,3.48-0.92,5.283-1.193
		c1.696-0.246,3.499-0.346,5.24-0.284c7.035,0.194,13.876,3.085,18.896,7.845c2.506,2.365,4.558,5.202,6.003,8.296
		c0.729,1.54,1.297,3.14,1.721,4.796c0.443,1.654,0.731,3.315,0.811,4.924c0.389,6.486-2.098,12.998-6.695,17.622
		c-2.27,2.31-5.074,4.126-8.184,5.302c-0.758,0.288-1.613,0.568-2.35,0.755l-0.684,0.156l-0.555,0.105
		c-0.348,0.082-0.786,0.117-1.193,0.179c-1.611,0.167-3.263,0.15-4.904-0.104c-5.171-0.96-9.975-4.842-9.975-4.842
		c-0.718-0.556-0.936-1.61-0.46-2.423c0.43-0.726,1.232-1.063,2.024-0.916l0.197,0.027c3.862,0.66,7.898-1.08,9.989-4.677
		c2.69-4.624,1.11-10.542-3.511-13.223c-4.626-2.682-10.537-1.109-13.215,3.507c-2.062,3.551-1.613,8.012-1.43,9.432
		c0.539,4.014,2.115,8.045,4.709,11.274c2.633,3.222,6.287,5.736,10.416,6.998c2.076,0.645,4.26,0.981,6.459,0.969
		c0.552-0.018,1.074-0.008,1.67-0.065l0.864-0.072l0.722-0.09c1.146-0.168,2.133-0.361,3.215-0.647
		c3.684-0.969,7.186-2.746,10.18-5.17c-0.625,3.639-0.611,7.426,0.18,11.062c0.57,2.55,1.521,5.03,2.811,7.33
		c0.648,1.153,1.383,2.253,2.18,3.302c0.844,1.075,1.737,2.047,2.754,2.951c4.045,3.593,9.453,5.636,14.932,5.604
		c3.361,0,6.753-0.725,9.853-2.178c0.694,0.202,1.369,0.454,2.019,0.772c0.529,0.257,1.013,0.545,1.488,0.878
		c0.461,0.311,0.885,0.674,1.269,1.087c1.606,1.575,2.556,3.746,2.69,5.948c0.055,1.102-0.081,2.213-0.426,3.243
		c-0.166,0.521-0.389,1.017-0.651,1.492c-0.247,0.477-0.55,0.935-0.882,1.319c-1.336,1.591-3.327,2.559-5.41,2.628
		c-1.035,0.044-2.083-0.151-3.064-0.563c-0.244-0.093-0.5-0.214-0.707-0.332l-0.197-0.113l-0.155-0.097
		c-0.099-0.053-0.208-0.139-0.313-0.214c-0.396-0.318-0.789-0.682-1.113-1.101c-0.983-1.35-1.264-3.304-1.264-3.304
		c-0.046-0.288,0.131-0.58,0.422-0.666c0.264-0.078,0.526,0.022,0.661,0.227l0.047,0.049c0.762,1,2.085,1.479,3.349,1.114
		c1.631-0.501,2.561-2.22,2.082-3.852c-0.49-1.64-2.208-2.564-3.836-2.079c-1.268,0.363-2.134,1.507-2.401,1.878
		c-0.761,1.05-1.267,2.333-1.371,3.656c-0.091,1.322,0.2,2.716,0.894,3.898c0.342,0.603,0.764,1.163,1.286,1.645
		c0.138,0.109,0.254,0.229,0.407,0.344l0.206,0.179l0.188,0.133c0.318,0.212,0.576,0.382,0.896,0.549
		c1.209,0.647,2.589,1.019,3.994,1.053c1.402,0.03,2.813-0.276,4.078-0.897c1.256-0.614,2.371-1.549,3.202-2.672
		c1.611-2.248,2.274-5.018,1.993-7.671c-0.27-2.648-1.527-5.181-3.481-6.952c-0.494-0.443-1.019-0.834-1.591-1.2
		c-0.522-0.326-1.111-0.624-1.704-0.883c-0.311-0.134-0.411-0.667-0.146-0.851c1.01-0.638,1.993-1.355,2.914-2.176
		c2.115-1.932,3.77-4.383,4.762-7.101c0.99-2.706,1.318-5.653,0.961-8.497c-0.373-2.848-1.409-5.598-3.018-7.928
		c-0.408-0.594-0.812-1.123-1.314-1.691l-0.312-0.349l-0.395-0.407c-0.28-0.289-0.536-0.498-0.811-0.733
		c-1.075-0.946-2.309-1.718-3.602-2.284c-2.594-1.149-5.483-1.456-8.16-0.981c-2.661,0.496-5.174,1.821-7.158,3.577
		c-0.691,0.635-2.809,2.646-3.315,5.284c-0.632,3.446,1.626,6.744,5.065,7.388c3.429,0.637,6.736-1.619,7.384-5.066
		c0.501-2.663-0.759-5.258-2.957-6.589l-0.123-0.053c-0.435-0.269-0.7-0.784-0.601-1.322c0.111-0.607,0.658-1.033,1.258-1.005
		c0,0,4.045,0.127,7.006,1.854c0.936,0.576,1.759,1.269,2.502,2.047c0.152,0.196,0.361,0.418,0.496,0.59l0.219,0.301l0.283,0.374
		c0.281,0.394,0.588,0.891,0.848,1.361c1.037,1.911,1.666,4.011,1.793,6.131c0.301,4.251-1.231,8.533-4.196,11.593
		c-0.733,0.763-1.587,1.462-2.509,2.096c-0.902,0.631-1.885,1.191-2.891,1.639c-2.044,0.916-4.262,1.45-6.526,1.556
		c-4.523,0.216-9.146-1.283-12.718-4.177c-0.893-0.712-1.742-1.533-2.484-2.382c-0.776-0.901-1.462-1.845-2.101-2.841
		c-1.261-1.99-2.253-4.178-2.884-6.468c-1.166-4.018-1.266-8.36-0.305-12.507c2.736-2.778,4.91-6.098,6.292-9.757
		c1.556-4.127,2.089-8.642,1.557-12.997c-1.147-8.603-5.586-16.332-11.935-21.794c-6.318-5.478-14.618-8.512-22.86-8.372
		c-2.079,0.042-4.112,0.261-6.15,0.688c-1.963,0.39-3.931,0.95-5.822,1.637c-3.787,1.388-7.347,3.302-10.558,5.686
		c-6.412,4.812-11.297,11.457-13.967,18.863c-2.024,5.574-0.814,4.556-3.327,5.718c-0.798-12.213,1.349-24.638,6.28-35.914
		c1.241-2.824,2.619-5.569,4.198-8.244c1.501-2.575,3.253-5.108,5.134-7.468c3.775-4.755,8.262-8.964,13.31-12.421
		c10.052-6.951,22.271-10.788,34.616-11.007c12.325-0.262,24.893,3.28,35.316,10.119c5.182,3.408,9.744,7.815,13.351,12.943
		c3.313,4.665,5.823,9.938,7.441,15.496c-0.732-0.251-1.511-0.637-2.333-1.217c-2.316-1.64-3.24-3.792-3.985-5.707
		c-0.798-2.32-1.361-4.799-4.702-7.149c-5.269-3.714-11.035-2.449-13.545,1.119c-3.111,4.417-1.672,12.737,10.338,21.208
		c4.891,3.458,10.566,6.075,15.459,7.431l0.399,0.097c-0.091,2.432-0.947,4.65-2.292,6.463c-1.695-2.38-4.115-4.096-7.346-4.06
		c-4.517,0.062-7.427,3.61-7.381,7.852c0.047,2.865,1.465,5.332,2.979,7.528c1.877,2.837,3.93,5.209,3.977,7.795
		c0.026,2.585-2.247,5.474-4.637,5.492c-1.296,0.028-2.136-0.505-2.147-1.431c-0.02-1.2,0.818-1.771,0.795-3.337
		c-0.031-1.94-1.894-3.389-3.559-3.365c-2.76,0.033-4.22,2.168-4.176,4.666c0.037,3.879,3.959,6.227,8.188,6.177
		c6.103-0.085,10.632-6.795,18.896-9.846c6.239-2.313,10.26-5.302,10.182-11.309c-0.055-4.525-3.619-8.077-7.851-8.022
		c-1.852,0.026-3.421,0.602-4.692,1.451c0.898-1.708,1.396-3.517,1.52-5.474c1.003,0.178,2.535,0.432,4.945,0.849
		c8.409,1.398,15.242-1.545,19.502-7.59c4.711-6.658,3.792-15.417-2.088-19.562c-3.546-2.511-7-2.748-10.529-2.335
		c-3.293,0.24-7.986-1.653-9.256-1.878c-0.691-1.233-0.42-2.555,0.05-3.814c0.67-1.948,1.147-3.938-1.185-5.571
		c-1.846-1.323-4.248-0.559-5.67,1.453c-2.607,3.718-1.095,8.489,2.828,11.28c4.26,3,9.182,1.479,13.537,1.066
		c3-0.314,5.818-0.195,8.766,1.87c4.951,3.517,5.006,9.697,1.991,13.957c-3.6,5.112-10.218,7.863-17.392,7.216
		c-1.252-0.105-3.418-0.439-5.112-0.661c0.011-0.381,0.011-0.604,0.007-0.63c-0.058-3.04-0.215-5.895-0.615-8.873
		c1.107-0.44,2.123-1.045,2.963-1.717c1.314-1.041-0.104-2.979-1.527-2.129c-0.571,0.365-1.234,0.664-1.948,0.847
		c-2.55-12.97-10.093-25.051-20.943-33.112c-7.284-5.312-15.63-9.078-24.413-11.145c-1.153-0.281-0.042-2.438,1.573-3.483
		c3.263-2.117,6.243-4.731,8.79-7.723c4.922-5.778,8.188-13.004,9.303-20.646c0.543-0.805,1.113-1.577,1.73-2.312
		c2.81-3.274,6.562-5.681,10.617-6.855c2.037-0.599,4.143-0.898,6.24-0.885c1.053,0,2.085,0.078,3.137,0.246
		c0.993,0.147,2.027,0.398,2.976,0.741c3.88,1.312,7.19,4.086,9.157,7.592c0.984,1.755,1.634,3.681,1.916,5.65
		c0.131,0.982,0.178,1.979,0.131,2.951c-0.039,1.012-0.178,1.982-0.407,2.899c-0.901,3.676-3.396,6.864-6.731,8.646
		c-1.67,0.906-3.549,1.437-5.469,1.544c-0.479,0.035-0.998,0.035-1.437,0.02l-0.425-0.032l-0.314-0.038
		c-0.208-0.009-0.455-0.057-0.681-0.1c-0.935-0.195-1.851-0.477-2.718-0.903c-2.709-1.42-4.719-4.396-4.719-4.396
		c-0.297-0.445-0.238-1.058,0.169-1.426c0.355-0.332,0.866-0.379,1.263-0.165l0.119,0.046c2.03,1.034,4.59,0.752,6.358-0.886
		c2.284-2.113,2.422-5.681,0.315-7.953c-2.107-2.288-5.674-2.43-7.953-0.32c-1.742,1.62-2.27,4.181-2.403,5.006
		c-0.382,2.318-0.202,4.826,0.683,7.076c0.914,2.239,2.493,4.266,4.592,5.659c1.033,0.728,2.201,1.29,3.422,1.668
		c0.302,0.08,0.59,0.174,0.951,0.231l0.488,0.118l0.409,0.077c0.661,0.1,1.239,0.158,1.888,0.178
		c2.525,0.115,5.082-0.404,7.393-1.47c2.318-1.072,4.366-2.709,5.955-4.746c0.019-0.034,0.049-0.067,0.073-0.113
		c-0.19,2.326-0.065,4.688,0.425,6.974c0.475,2.134,1.277,4.205,2.355,6.14c0.539,0.951,1.147,1.881,1.817,2.733
		c0.702,0.916,1.466,1.726,2.312,2.482c3.362,3,7.89,4.706,12.451,4.694c2.831-0.01,5.663-0.625,8.237-1.833
		c0.605,0.16,1.174,0.375,1.696,0.648c0.436,0.21,0.853,0.455,1.236,0.739c0.379,0.255,0.747,0.568,1.093,0.891
		c1.323,1.325,2.115,3.136,2.213,4.979c0.061,0.921-0.047,1.846-0.331,2.712c-0.149,0.434-0.333,0.841-0.548,1.247
		c-0.217,0.402-0.463,0.775-0.747,1.109c-1.117,1.322-2.774,2.129-4.53,2.188c-0.852,0.024-1.729-0.126-2.555-0.464
		c-0.193-0.084-0.41-0.19-0.584-0.284l-0.178-0.095l-0.115-0.081c-0.078-0.05-0.173-0.123-0.26-0.179
		c-0.334-0.27-0.666-0.564-0.943-0.922c-0.811-1.129-1.049-2.765-1.049-2.765c-0.034-0.24,0.108-0.479,0.359-0.554
		c0.213-0.062,0.432,0.022,0.554,0.19l0.036,0.042c0.628,0.827,1.745,1.237,2.8,0.922c1.36-0.408,2.128-1.833,1.736-3.206
		c-0.409-1.369-1.841-2.146-3.214-1.739c-1.049,0.318-1.785,1.266-2.001,1.571c-0.634,0.873-1.052,1.947-1.147,3.054
		c-0.077,1.098,0.179,2.26,0.75,3.267c0.284,0.494,0.655,0.957,1.076,1.368c0.102,0.097,0.196,0.191,0.34,0.286l0.184,0.132
		l0.143,0.122c0.258,0.182,0.473,0.303,0.74,0.463c1.017,0.552,2.176,0.852,3.338,0.882c1.186,0.019,2.352-0.227,3.403-0.747
		c1.065-0.521,1.987-1.298,2.692-2.24c1.339-1.888,1.896-4.208,1.662-6.416c-0.229-2.22-1.277-4.314-2.904-5.807
		c-0.416-0.371-0.84-0.685-1.311-0.992c-0.466-0.282-0.94-0.532-1.456-0.743c-0.246-0.113-0.337-0.56-0.114-0.712
		c0.854-0.531,1.673-1.133,2.436-1.82c1.767-1.614,3.156-3.668,3.986-5.932c0.837-2.272,1.109-4.733,0.809-7.119
		c-0.316-2.379-1.18-4.668-2.524-6.618c-0.343-0.493-0.672-0.938-1.104-1.412l-0.251-0.295l-0.335-0.346
		c-0.219-0.237-0.453-0.413-0.672-0.621c-0.913-0.784-1.925-1.431-3.015-1.901c-2.169-0.961-4.569-1.21-6.812-0.825
		c-2.238,0.427-4.334,1.532-5.979,3.001c-0.58,0.527-2.367,2.206-2.77,4.422c-0.551,2.874,1.341,5.637,4.209,6.172
		c2.879,0.538,5.645-1.357,6.17-4.232c0.424-2.23-0.618-4.394-2.468-5.51l-0.093-0.067c-0.375-0.2-0.582-0.638-0.498-1.087
		c0.093-0.516,0.553-0.864,1.057-0.852c0,0,3.372,0.115,5.858,1.561c0.771,0.484,1.464,1.067,2.079,1.704
		c0.123,0.171,0.299,0.342,0.407,0.5l0.184,0.246l0.24,0.295c0.231,0.354,0.5,0.769,0.7,1.163c0.866,1.583,1.4,3.349,1.508,5.128
		c0.262,3.543-1.031,7.13-3.514,9.685c-0.604,0.655-1.32,1.23-2.094,1.766c-0.764,0.522-1.578,0.989-2.434,1.367
		c-1.701,0.764-3.545,1.203-5.437,1.309c-3.78,0.174-7.645-1.075-10.628-3.508c-0.736-0.587-1.461-1.276-2.07-1.981
		c-0.646-0.754-1.229-1.54-1.766-2.372c-1.06-1.668-1.877-3.494-2.404-5.396c-0.984-3.373-1.062-6.987-0.259-10.44
		c0.312-0.81,0.567-1.637,0.75-2.478c0.036-0.147,0.097-0.322,0.157-0.484l-0.061,0.041c0.833-4.976-0.303-10.029-2.898-14.15
		c-2.57-4.122-6.664-7.234-11.28-8.57c-1.159-0.319-2.306-0.558-3.525-0.675c-1.151-0.111-2.351-0.135-3.507-0.082
		c-2.35,0.119-4.682,0.578-6.866,1.359c-3.519,1.258-6.714,3.359-9.244,6.026c-0.632,0.662-2.021,0.294-2.024-0.873
		c0-2.257-0.189-4.512-0.568-6.752c-0.33-1.982-0.83-3.958-1.443-5.857c-0.66-1.998-1.483-3.851-2.467-5.679
		c-3.97-7.235-10.715-12.939-18.621-15.712c-7.887-2.791-16.793-2.81-24.85,0.468c-4.05,1.7-7.705,4.402-10.505,7.805
		c-2.821,3.401-4.786,7.485-5.733,11.761c-0.92,4.284-0.825,8.777,0.282,12.945c0.288,1.069,0.619,2.04,1.04,3.115l0.279,0.658
		l0.366,0.793c0.245,0.551,0.496,0.993,0.774,1.485c1.086,1.906,2.455,3.642,4.037,5.115c0.266,0.24,0.521,0.466,0.797,0.691
		c-0.046,0.989-0.195,2.13-0.463,3.509c-0.49,2.573-1.682,4.965-2.998,7.211c-2.887,4.875-7.166,8.872-12.161,11.333
		c-2.478,1.246-5.133,2.114-7.857,2.588c-1.354,0.245-2.706,0.379-4.112,0.424c-1.309,0.026-2.68-0.062-3.99-0.271
		c-5.342-0.797-10.263-3.622-13.622-7.693c-1.69-2.039-2.989-4.373-3.788-6.853c-0.429-1.245-0.699-2.518-0.877-3.804
		c-0.169-1.309-0.244-2.575-0.152-3.806c0.302-4.982,2.793-9.676,6.707-12.761c1.934-1.55,4.238-2.664,6.707-3.259
		c0.605-0.156,1.276-0.277,1.846-0.368l0.544-0.05l0.419-0.035c0.277-0.027,0.621-0.007,0.918-0.021
		c1.24,0.021,2.49,0.195,3.715,0.534c3.842,1.206,7.131,4.6,7.131,4.6c0.496,0.494,0.551,1.303,0.119,1.883
		c-0.378,0.509-1.033,0.686-1.607,0.5l-0.15-0.035c-2.875-0.855-6.104,0.094-8.02,2.627c-2.462,3.25-1.82,7.895,1.446,10.351
		c3.255,2.472,7.892,1.821,10.358-1.437c1.883-2.499,1.957-5.922,1.957-7.037c-0.055-3.082-0.859-6.29-2.551-8.983
		c-1.689-2.684-4.229-4.928-7.264-6.262c-1.509-0.685-3.129-1.144-4.798-1.339c-0.421-0.036-0.815-0.094-1.271-0.107l-0.672-0.013
		l-0.546-0.007c-0.89,0.016-1.652,0.076-2.501,0.202c-2.707,0.364-5.358,1.3-7.744,2.693l-1.973,1.319
		c-2.502,1.887-4.632,4.323-6.09,7.133c-1.566,2.979-2.369,6.359-2.379,9.712c0.012,1.43,0.152,2.839,0.411,4.219
		c0.07,0.364-0.494,0.706-0.859,0.543c-0.679-0.309-1.399-0.589-2.102-0.782c-0.756-0.214-1.509-0.352-2.271-0.423
		c-3.068-0.291-6.242,0.595-8.758,2.457c-2.505,1.852-4.379,4.591-5.055,7.77c-0.314,1.599-0.256,3.291,0.213,4.863
		c0.459,1.575,1.303,3.044,2.432,4.236c1.135,1.172,2.543,2.081,4.063,2.614c0.386,0.131,0.749,0.244,1.167,0.334l0.262,0.05
		l0.314,0.06c0.234,0.038,0.431,0.048,0.629,0.07c0.82,0.068,1.635,0,2.426-0.178c1.572-0.355,3-1.177,4.068-2.302
		c1.072-1.122,1.758-2.583,2.072-4.057c0.121-0.518,0.423-2.18-0.248-3.562c-0.861-1.799-3.018-2.538-4.818-1.665
		c-1.799,0.859-2.551,3.015-1.684,4.808c0.672,1.398,2.119,2.161,3.58,2.028h0.08c0.295-0.042,0.586,0.109,0.716,0.391
		c0.151,0.324,0.053,0.689-0.233,0.892c0,0-1.896,1.312-3.852,1.51c-0.613,0.052-1.232,0.009-1.831-0.095
		c-0.147-0.036-0.309-0.06-0.429-0.095l-0.203-0.062l-0.26-0.091c-0.252-0.086-0.577-0.209-0.846-0.338
		c-1.113-0.519-2.117-1.273-2.893-2.208c-1.578-1.852-2.322-4.333-1.988-6.732c0.084-0.617,0.229-1.212,0.442-1.814
		c0.21-0.59,0.462-1.184,0.782-1.737c0.611-1.104,1.463-2.104,2.469-2.915c2.001-1.619,4.633-2.5,7.248-2.381
		c0.646,0.032,1.309,0.121,1.938,0.266c0.668,0.153,1.313,0.344,1.928,0.591c0.793,0.311,1.551,0.691,2.268,1.125
		c1.191,3.831,3.206,7.338,5.865,10.258c4.29,4.744,10.312,7.807,16.581,8.469c1.583,0.159,3.122,0.172,4.731,0.049
		c1.513-0.109,3.073-0.364,4.567-0.711c3.001-0.689,5.895-1.813,8.549-3.344c5.306-3.055,9.354-7.603,12.329-13.014
		c0.882-1.613,1.685-3.274,2.188-5.022c0.437-1.465,0.893-3.385,1.01-5.531c2.75,2,5.912,3.326,9.176,3.863
		c4.092,0.658,8.366,0.024,12.125-1.49c1.325-0.546,5.417-2.367,7.479-5.926c2.682-4.62,1.112-10.538-3.504-13.216
		c-4.629-2.688-10.557-1.111-13.229,3.51c-2.088,3.596-1.6,7.971,0.901,11.005l0.115,0.155c0.511,0.59,0.61,1.479,0.202,2.2
		c-0.475,0.822-1.488,1.146-2.336,0.807c0,0-5.741-2.244-9.143-6.259c-1.035-1.3-1.875-2.728-2.531-4.215
		c-0.148-0.366-0.336-0.771-0.44-1.108l-0.169-0.534l-0.214-0.688c-0.191-0.721-0.386-1.603-0.503-2.401
		c-0.535-3.282-0.355-6.625,0.547-9.744c1.729-6.276,6.137-11.667,11.971-14.559c1.431-0.735,3.029-1.303,4.682-1.752
		c1.641-0.452,3.326-0.744,5.031-0.88c3.404-0.276,6.864,0.103,10.174,1.097c6.627,1.992,12.537,6.504,16.184,12.515
		c0.917,1.481,1.72,3.104,2.363,4.698c0.655,1.698,1.18,3.412,1.581,5.17c0.798,3.521,1.081,7.165,0.851,10.801
		c-0.445,7.254-3.081,14.442-7.518,20.392c-3.632,4.865-8.473,8.866-14.014,11.584c-2.846-0.425-5.705-0.699-8.581-0.781
		c-13.827-0.409-27.787,3.539-39.534,11.06c-5.882,3.751-11.21,8.404-15.754,13.745c-2.274,2.679-4.311,5.516-6.168,8.54
		c-1.799,2.934-3.441,6.004-4.885,9.15c-3.293,7.129-5.6,14.725-6.867,22.492c-0.298,1.784-1.941,1.133-2.24,0.342
		c-1.1-2.842-2.528-5.575-4.252-8.117c-4.396-6.511-10.766-11.765-18.154-14.865c-1.678-0.687-3.41-1.256-5.169-1.73
		c-0.546-0.615-1.068-1.248-1.526-1.91c-0.557-0.811-1.064-1.652-1.505-2.542c-0.413-0.848-0.778-1.766-1.022-2.684
		c-1.094-3.694-0.748-7.73,0.891-11.139c0.818-1.715,1.945-3.255,3.307-4.533c0.676-0.637,1.42-1.195,2.196-1.704
		c0.802-0.5,1.603-0.927,2.432-1.245c3.315-1.302,7.12-1.087,10.297,0.513c1.573,0.792,2.988,1.94,4.124,3.362
		c0.284,0.347,0.564,0.754,0.801,1.1l0.193,0.337l0.146,0.265c0.091,0.166,0.186,0.391,0.294,0.579
		c0.357,0.814,0.626,1.68,0.777,2.577c0.368,2.848-0.838,5.998-0.838,5.998c-0.18,0.474-0.676,0.759-1.193,0.656
		c-0.445-0.104-0.76-0.468-0.801-0.897l-0.027-0.106c-0.313-2.12-1.904-3.934-4.119-4.415c-2.852-0.615-5.672,1.208-6.283,4.051
		c-0.619,2.855,1.193,5.677,4.041,6.281c2.197,0.474,4.441-0.507,5.16-0.852c1.99-0.947,3.817-2.445,5.061-4.339
		c1.234-1.9,1.939-4.22,1.885-6.595c-0.016-1.172-0.211-2.375-0.576-3.519c-0.107-0.288-0.189-0.557-0.311-0.861l-0.188-0.44
		l-0.174-0.353c-0.28-0.567-0.551-1.057-0.865-1.561c-1.287-1.985-3.073-3.673-5.141-4.883c-2.079-1.195-4.442-1.899-6.856-2.016
		c-2.405-0.118-4.845,0.373-7.014,1.373c-0.927,0.435-1.797,0.946-2.619,1.544c-0.222,0.147-0.608-0.115-0.608-0.396
		c-0.003-0.54-0.058-1.084-0.128-1.607c-0.081-0.555-0.222-1.08-0.413-1.597c-0.723-2.075-2.263-3.863-4.219-4.938
		c-1.961-1.069-4.303-1.462-6.559-0.944c-1.142,0.273-2.215,0.827-3.086,1.604c-0.904,0.768-1.598,1.756-2.028,2.84
		c-0.425,1.097-0.597,2.284-0.476,3.429c0.042,0.292,0.07,0.552,0.143,0.858l0.039,0.186l0.061,0.227
		c0.036,0.158,0.095,0.279,0.139,0.421c0.201,0.559,0.504,1.066,0.842,1.524c0.715,0.917,1.672,1.585,2.726,1.947
		c1.051,0.357,2.198,0.368,3.253,0.123c0.375-0.079,1.529-0.394,2.227-1.23c0.894-1.104,0.75-2.73-0.359-3.632
		c-1.102-0.904-2.732-0.738-3.626,0.36c-0.706,0.855-0.758,2.03-0.243,2.935l0.028,0.042c0.114,0.185,0.108,0.415-0.04,0.585
		c-0.172,0.201-0.435,0.244-0.652,0.12c0,0-1.418-0.838-2.125-2.048c-0.236-0.382-0.381-0.794-0.496-1.204
		c-0.024-0.107-0.053-0.227-0.061-0.318l-0.016-0.153l-0.041-0.185c-0.016-0.199-0.031-0.446-0.03-0.658
		c0.012-0.882,0.199-1.756,0.559-2.537c0.739-1.583,2.117-2.81,3.787-3.316c0.403-0.138,0.845-0.211,1.303-0.264
		c0.438-0.039,0.899-0.052,1.353-0.004c0.91,0.066,1.812,0.315,2.643,0.718c1.647,0.81,3.016,2.253,3.709,3.989
		c0.189,0.429,0.318,0.892,0.429,1.333c0.099,0.482,0.161,0.954,0.2,1.443c0.023,0.591,0.014,1.197-0.064,1.802
		c-2.124,1.915-3.785,4.283-4.889,6.882c-1.778,4.21-1.948,9.042-0.5,13.311c0.371,1.069,0.827,2.091,1.396,3.092
		c0.47,0.82,1.007,1.628,1.595,2.415c-0.922-0.167-1.848-0.307-2.783-0.397c-2-0.2-4.033-0.277-6.035-0.17
		c-2.098,0.095-4.102,0.364-6.117,0.837c-8.045,1.894-15.344,6.865-20.135,13.73c-4.816,6.851-7.225,15.42-6.236,24.048
		c0.557,4.354,2.168,8.602,4.693,12.213c2.519,3.634,5.91,6.613,9.782,8.672c3.889,2.045,8.237,3.16,12.565,3.205
		c1.098,0.016,2.111-0.044,3.258-0.162l0.721-0.089l0.865-0.142c0.585-0.089,1.098-0.221,1.624-0.345
		c2.14-0.534,4.172-1.375,6.022-2.525c3.167-1.9,5.763-4.605,7.537-7.704c0.793-0.26,1.582-0.474,2.397-0.646
		c1.938-0.396,3.94-0.523,5.903-0.346c0.992,0.082,1.96,0.234,2.92,0.461c0.922,0.228,1.85,0.546,2.723,0.928
		c3.525,1.529,6.4,4.388,7.985,7.826c0.794,1.717,1.248,3.566,1.358,5.433c0.056,0.929,0.027,1.873-0.098,2.783
		c-0.113,0.935-0.309,1.834-0.592,2.659c-1.131,3.376-3.715,6.181-6.99,7.579c-1.61,0.732-3.417,1.064-5.228,1.029
		c-0.454-0.007-0.937-0.05-1.339-0.102l-0.392-0.053l-0.292-0.061c-0.191-0.032-0.43-0.102-0.636-0.146
		c-0.866-0.249-1.692-0.596-2.479-1.054c-2.426-1.531-4.071-4.484-4.071-4.484c-0.25-0.44-0.155-1.007,0.268-1.323
		c0.354-0.281,0.84-0.292,1.196-0.058l0.091,0.06c1.842,1.117,4.243,1.042,6.027-0.342c2.302-1.802,2.721-5.128,0.918-7.424
		c-1.793-2.304-5.122-2.712-7.428-0.908c-1.756,1.378-2.447,3.732-2.647,4.493c-0.54,2.146-0.559,4.504,0.095,6.678
		c0.688,2.171,2.037,4.19,3.872,5.669c0.921,0.739,1.962,1.361,3.085,1.807c0.281,0.105,0.527,0.218,0.857,0.312l0.46,0.143
		l0.371,0.083c0.612,0.158,1.167,0.256,1.757,0.343c2.346,0.284,4.793,0,7.029-0.827c2.254-0.83,4.312-2.203,5.949-3.985
		c1.621-1.768,2.812-3.945,3.424-6.265c0.257-0.991,0.424-1.988,0.508-2.994l0.047-2.35c-0.112-2.858-0.871-5.637-2.168-8.161
		c-2.091-4.057-5.688-7.287-9.897-8.898c-1.064-0.393-2.134-0.698-3.267-0.887c-1.07-0.203-2.184-0.33-3.267-0.36
		c-2.223-0.072-4.417,0.172-6.524,0.738c-0.256,0.07-0.492,0.149-0.74,0.226c1.459-3.58,1.9-7.543,1.484-11.277
		c-0.172-1.431-0.83-5.87-3.691-8.801c-3.738-3.828-9.854-3.901-13.68-0.18c-3.825,3.747-3.902,9.866-0.17,13.692
		c2.9,2.968,7.252,3.69,10.84,2.087l0.186-0.067c0.7-0.336,1.596-0.211,2.174,0.381c0.666,0.683,0.708,1.741,0.159,2.476
		c0,0-3.716,4.936-8.489,7.125c-1.529,0.657-3.13,1.072-4.737,1.312c-0.386,0.034-0.841,0.107-1.194,0.128l-0.557,0.013l-0.712,0.02
		c-0.753-0.006-1.661-0.058-2.458-0.157c-3.303-0.374-6.465-1.448-9.244-3.154c-5.586-3.335-9.587-9.029-10.795-15.432
		c-0.318-1.575-0.445-3.252-0.422-4.958c0.009-1.705,0.164-3.406,0.49-5.079c0.649-3.348,1.931-6.599,3.795-9.514
		c3.701-5.846,9.631-10.319,16.395-12.228c1.675-0.492,3.447-0.837,5.166-1.014c1.807-0.174,3.6-0.223,5.402-0.137
		c3.602,0.17,7.193,0.864,10.611,2.079c6.883,2.367,13.098,6.82,17.626,12.693c3.636,4.702,6.148,10.291,7.332,16.208
		c-0.138,2.754-0.147,5.513-0.024,8.258c0.623,13.918,4.707,27.656,11.648,39.75c6.959,12.105,16.838,22.547,28.588,30.093
		c11.744,7.4,24.779,12.438,38.357,14.927c13.559,2.459,27.592,2.384,41.055-0.427c13.465-2.794,26.379-8.142,37.826-15.67
		c5.719-3.78,11.102-8.066,15.973-12.861c1.09-1.075,2.572-1.186,2.423-0.105c-0.53,3.681,0.034,7.54,1.644,10.963
		c0.814,1.71,1.873,3.303,3.136,4.721c0.644,0.695,1.347,1.373,2.067,1.972c0.768,0.632,1.572,1.171,2.424,1.646
		c3.408,1.897,7.534,2.474,11.396,1.587c3.859-0.875,7.431-3.113,9.818-6.453c1.178-1.688,1.975-3.698,2.223-5.774
		c0.273-2.057,0.041-4.184-0.674-6.132c-0.698-1.948-1.888-3.715-3.385-5.105c-0.389-0.355-0.736-0.654-1.195-0.984l-0.271-0.189
		l-0.354-0.227c-0.229-0.159-0.439-0.269-0.676-0.391c-0.928-0.492-1.897-0.829-2.914-1.031c-1.998-0.396-4.084-0.151-5.891,0.609
		c-1.805,0.764-3.348,2.1-4.475,3.651c-0.387,0.56-1.57,2.319-1.496,4.254c0.097,2.528,2.206,4.495,4.737,4.4
		c2.53-0.095,4.505-2.204,4.404-4.739c-0.071-1.964-1.376-3.588-3.146-4.175l-0.077-0.03c-0.351-0.106-0.623-0.428-0.635-0.825
		c-0.014-0.447,0.303-0.836,0.73-0.921c0,0,2.865-0.547,5.235,0.2c0.749,0.258,1.435,0.621,2.075,1.046
		c0.139,0.113,0.32,0.234,0.438,0.337l0.223,0.182l0.238,0.208c0.271,0.242,0.568,0.538,0.819,0.833
		c1.034,1.182,1.804,2.557,2.242,4.032c0.886,2.949,0.492,6.206-1.113,8.829c-0.388,0.661-0.894,1.291-1.425,1.882
		c-0.547,0.582-1.136,1.136-1.797,1.621c-1.289,0.97-2.766,1.69-4.344,2.128c-3.146,0.869-6.64,0.561-9.626-0.916
		c-0.752-0.364-1.458-0.811-2.123-1.288c-0.7-0.515-1.331-1.062-1.95-1.662c-1.189-1.2-2.23-2.583-3.049-4.098
		c-1.666-3.003-2.431-6.548-2.154-10.043c0.143-1.658,0.52-3.303,1.091-4.886c3.071-3.431,5.945-7.044,8.538-10.829
		c1.918-2.799,3.747-5.733,5.383-8.656c1.634-2.812,3.166-5.514,4.927-8.195c3.44-5.337,7.276-10.442,11.394-15.268
		c8.299-9.629,18.066-18.066,29.043-24.576c6.287-3.787,15.257-7.525,20.652-9.21c6.447-2.017,13.674-2.533,21.124-2.533
		c12.21,0,25.706,3.637,33.687,6.794c17.676,6.978,31.916,20.683,43.901,35.223c12.075,14.5,21.534,31.092,28.349,48.629
		c3.377,8.771,6.191,17.766,8.354,26.915c1.115,4.593,1.936,9.136,2.834,13.869c0.836,4.875,1.932,9.868,3.205,14.723
		c1.773,6.568,3.977,13.017,6.584,19.324c0.025,2.492-0.283,4.957-0.916,7.344c-1.334,5.014-4.15,9.573-7.945,12.951
		c-1.889,1.692-4.014,3.113-6.285,4.215c-1.141,0.523-2.322,0.981-3.545,1.353c-1.146,0.341-2.378,0.6-3.595,0.732
		c-4.88,0.596-9.901-0.695-13.868-3.463c-1.982-1.395-3.695-3.141-5.019-5.125c-0.658-0.996-1.216-2.041-1.683-3.143
		c-0.47-1.103-0.842-2.211-1.068-3.336c-0.936-4.449,0.111-9.188,2.82-12.859c1.34-1.836,3.086-3.382,5.096-4.52
		c0.509-0.269,1.073-0.546,1.55-0.742l0.472-0.188l0.381-0.138c0.221-0.093,0.512-0.167,0.786-0.241
		c1.104-0.286,2.239-0.445,3.404-0.438c3.675,0.129,7.396,2.31,7.396,2.31c0.555,0.321,0.814,1.005,0.564,1.633
		c-0.207,0.546-0.75,0.859-1.302,0.833l-0.13,0.016c-2.736-0.061-5.375,1.557-6.424,4.261c-1.4,3.473,0.31,7.407,3.791,8.783
		c3.468,1.381,7.393-0.319,8.773-3.791c1.061-2.664,0.291-5.714,0.02-6.675c-0.787-2.707-2.301-5.335-4.439-7.304
		c-2.127-1.958-4.921-3.322-7.934-3.761c-1.482-0.22-3.033-0.234-4.553,0c-0.387,0.062-0.73,0.106-1.148,0.204l-0.59,0.153
		l-0.479,0.127c-0.769,0.243-1.438,0.478-2.147,0.783c-2.787,1.192-5.301,3.081-7.236,5.447c-1.953,2.373-3.35,5.215-3.983,8.221
		c-0.655,3.019-0.56,6.188,0.239,9.148c1.703,5.837,5.58,10.722,10.515,13.851c4.954,3.137,11.017,4.382,16.7,3.419
		c1.433-0.236,2.797-0.593,4.184-1.103c1.316-0.483,2.592-1.062,3.836-1.733c2.486-1.345,4.76-3.049,6.705-5.034
		c3.951-3.979,6.631-9.084,7.723-14.473c0.326-1.587,2.357-0.678,3.334,1.325c4.432,9.111,9.818,17.757,15.921,25.843
		c12.239,16.178,27.607,30.004,44.996,40.551c17.402,10.574,36.945,17.609,57.06,20.87c20.165,3.237,40.821,2.639,60.861-1.878
		c20.125-4.734,39.083-14.387,54.735-27.842c15.675-13.438,28.142-30.58,35.891-49.683c1.114-2.749,2.137-5.54,3.044-8.351
		c0.176-0.503,5.304-16.499,11.217-22.509c2.553-2.594,5.414-4.863,8.559-6.627c1.572-0.895,3.192-1.656,4.896-2.318
		c1.607-0.613,3.34-1.103,5.049-1.412c6.917-1.353,14.242-0.011,20.167,3.54c2.984,1.779,5.592,4.098,7.675,6.794
		c1.055,1.354,1.962,2.807,2.738,4.303c0.789,1.537,1.421,3.09,1.852,4.649c1.805,6.261,0.785,13.146-2.698,18.672
		c-1.716,2.763-4.067,5.137-6.843,6.955c-0.679,0.451-1.446,0.909-2.114,1.25l-0.654,0.312l-0.523,0.221
		c-0.31,0.154-0.744,0.286-1.102,0.427c-1.552,0.513-3.166,0.854-4.812,0.967c-5.267,0.2-10.804-2.548-10.804-2.548
		c-0.84-0.404-1.274-1.374-0.989-2.276c0.261-0.799,0.997-1.319,1.78-1.324l0.196-0.024c3.912-0.2,7.486-2.786,8.74-6.743
		c1.613-5.105-1.201-10.544-6.302-12.153c-5.106-1.609-10.547,1.208-12.166,6.303c-1.23,3.918,0.177,8.183,0.672,9.527
		c1.396,3.804,3.817,7.396,7.067,9.979c3.274,2.584,7.369,4.252,11.705,4.567c2.145,0.183,4.361,0.045,6.492-0.454
		c0.548-0.135,1.046-0.239,1.628-0.417l0.828-0.273l0.667-0.238c1.104-0.401,2.029-0.821,3.011-1.329
		c3.188-1.645,6.042-3.957,8.376-6.729l1.861-2.477c2.274-3.432,3.806-7.361,4.401-11.467
		C854.929,482.333,854.454,477.809,853.01,473.669z M233.578,318.975c0.002,0.013-0.002,0.026-0.002,0.046
		c-4.979-0.86-10.133-2.802-14.78-6.081c-9.983-7.051-12.116-14.236-9.722-17.643c1.756-2.484,4.09-2.001,5.174-1.234
		c2.082,1.476,1.499,3.622,2.447,6.718c0.655,2.206,1.904,4.712,5.475,7.21c3.607,2.555,7.26,3.183,10.393,2.698
		C233.164,313.408,233.55,316.175,233.578,318.975z"/>
	<path fill="#E98E03" d="M790.121,435.011c-0.14-4.51-0.366-8.534-0.767-13.727c-0.546-7.269-0.516-9.465,0.304-12.986
		c2.019-8.719,9.52-15.243,9.278-16.459c-0.239-1.229-0.993-2.14-2.955-0.337c-1.966,1.807-7.485,4.598-8.787,4.268
		c-1.319-0.344-2.063-2.303-2.063-2.303s-1.277-20.304-2.476-34.898c-1.526-18.645-3.706-41.869-4.729-52.887
		c-0.555-6.081-0.25-13.025,1.928-18.764c1.637-4.306,4.54-8.212,8.712-10.338c5.601-2.819,12.589-2.69,18.285,0.12
		c2.514,1.244,4.107,2.683,5.687,5.079c1.931,2.902,1.949,6.418,1.397,9.826c-0.154,1.022-0.563,2.021-0.949,2.989
		c-0.941,2.29-2.398,3.992-4.914,5.417c-1.799,1.025-3.238,1.674-5.879,1.674c-1.549,0-3.182-0.58-4.632-1.135
		c-1.843-0.715-4.4-3.102-5.233-4.941c-1.342-3.029-1.535-6.512-0.142-9.539c0.882-1.874,2.491-4.049,4.671-5.105
		c2.536-1.212,5.31-1.249,7.427-0.611c0.793,0.247,1.473,0.497,2.06,0.752c0.631,0.271,2.252-0.163,0.504-1.892
		c-1.856-1.875-4.812-2.354-6.866-2.354c-2.565,0-4.675,0.318-7.253,1.623c-2.928,1.482-5.208,3.902-6.573,6.85
		c-1.17,2.488-1.795,5.573-1.795,8.316c0,9.072,5.978,15.199,14.62,17.091c9.823,2.146,20.445-4.279,24.23-13.326
		c4.043-9.681,0.776-21.95-7.706-28.225c-8.988-6.636-22.106-8.076-32.485-3.894c-2.819,1.15-5.669,2.71-8.093,4.527
		c-2.414,1.816-4.55,4.518-6.515,6.828c-8.275,9.728-11.74,29.392-11.104,42.086c0.639,12.703,11.186,77.244,11.186,77.244
		l-0.453,0.22l-4.422-2.652l-1.594,2.704c0,0,6.897,9.859,9.766,24.36c0,0,1.69,4.893,2.85,14.401
		C775.517,435.011,790.121,435.011,790.121,435.011z"/>
	<path fill="#EE5929" d="M784.839,388.908c0.183,2.824,0.292,4.559,0.292,4.559s0.744,1.959,2.063,2.303
		c1.302,0.33,6.821-2.461,8.787-4.268c1.962-1.803,2.716-0.892,2.955,0.337c0.241,1.216-7.26,7.74-9.278,16.459
		c-0.819,3.521-0.85,5.718-0.304,12.986c0.049,0.65,0.106,1.326,0.138,1.96l-16.877,0.298c-0.49-1.952-0.826-2.933-0.826-2.933
		c-2.868-14.501-9.766-24.36-9.766-24.36l1.594-2.704l4.422,2.652l0.453-0.22c0,0-0.432-2.669-1.141-7.067L784.839,388.908z"/>
	<path fill="#E98E03" d="M784.839,388.908c-0.445-6.82-1.331-20.017-2.184-30.34c-1.526-18.645-3.706-41.869-4.729-52.887
		c-0.555-6.081-0.25-13.025,1.928-18.764c1.637-4.306,4.54-8.212,8.712-10.338c5.601-2.819,12.589-2.69,18.285,0.12
		c2.514,1.244,4.107,2.683,5.687,5.079c1.931,2.902,1.949,6.418,1.397,9.826c-0.154,1.022-0.563,2.021-0.949,2.989
		c-0.941,2.29-2.398,3.992-4.914,5.417c-1.799,1.025-3.238,1.674-5.879,1.674c-1.549,0-3.182-0.58-4.632-1.135
		c-1.843-0.715-4.4-3.102-5.233-4.941c-1.342-3.029-1.535-6.512-0.142-9.539c0.882-1.874,2.491-4.049,4.671-5.105
		c2.536-1.212,5.31-1.249,7.427-0.611c0.793,0.247,1.473,0.497,2.06,0.752c0.631,0.271,2.252-0.163,0.504-1.892
		c-1.856-1.875-4.812-2.354-6.866-2.354c-2.565,0-4.675,0.318-7.253,1.623c-2.928,1.482-5.208,3.902-6.573,6.85
		c-1.17,2.488-1.795,5.573-1.795,8.316c0,9.072,5.978,15.199,14.62,17.091c9.823,2.146,20.445-4.279,24.23-13.326
		c4.043-9.681,0.776-21.95-7.706-28.225c-8.988-6.636-22.106-8.076-32.485-3.894c-2.819,1.15-5.669,2.71-8.093,4.527
		c-2.414,1.816-4.55,4.518-6.515,6.828c-8.275,9.728-11.74,29.392-11.104,42.086c0.497,10.103,7.294,53.072,10.045,70.176"/>
	<path fill="#416EA7" d="M784.062,377.294c-0.421-6.037-0.92-12.846-1.406-18.726c-1.526-18.645-3.706-41.869-4.729-52.887
		c-0.555-6.081-0.25-13.025,1.928-18.764c1.637-4.306,4.54-8.212,8.712-10.338c5.601-2.819,12.589-2.69,18.285,0.12
		c2.514,1.244,4.107,2.683,5.687,5.079c1.931,2.902,1.949,6.418,1.397,9.826c-0.154,1.022-0.563,2.021-0.949,2.989
		c-0.941,2.29-2.398,3.992-4.914,5.417c-1.799,1.025-3.238,1.674-5.879,1.674c-1.549,0-3.182-0.58-4.632-1.135
		c-1.843-0.715-4.4-3.102-5.233-4.941c-1.342-3.029-1.535-6.512-0.142-9.539c0.882-1.874,2.491-4.049,4.671-5.105
		c2.536-1.212,5.31-1.249,7.427-0.611c0.793,0.247,1.473,0.497,2.06,0.752c0.631,0.271,2.252-0.163,0.504-1.892
		c-1.856-1.875-4.812-2.354-6.866-2.354c-2.565,0-4.675,0.318-7.253,1.623c-2.928,1.482-5.208,3.902-6.573,6.85
		c-1.17,2.488-1.795,5.573-1.795,8.316c0,9.072,5.978,15.199,14.62,17.091c9.823,2.146,20.445-4.279,24.23-13.326
		c4.043-9.681,0.776-21.95-7.706-28.225c-8.988-6.636-22.106-8.076-32.485-3.894c-2.819,1.15-5.669,2.71-8.093,4.527
		c-2.414,1.816-4.55,4.518-6.515,6.828c-8.275,9.728-11.74,29.392-11.104,42.086c0.401,8.271,5.027,38.537,8.206,58.636
		L784.062,377.294c0.312,4.559,0.59,8.678,0.777,11.614"/>
	<path fill="#E98E03" d="M783.314,366.896c-0.233-2.859-0.439-5.694-0.659-8.327c-1.526-18.645-3.706-41.869-4.729-52.887
		c-0.555-6.081-0.25-13.025,1.928-18.764c1.637-4.306,4.54-8.212,8.712-10.338c5.601-2.819,12.589-2.69,18.285,0.12
		c2.514,1.244,4.107,2.683,5.687,5.079c1.931,2.902,1.949,6.418,1.397,9.826c-0.154,1.022-0.563,2.021-0.949,2.989
		c-0.941,2.29-2.398,3.992-4.914,5.417c-1.799,1.025-3.238,1.674-5.879,1.674c-1.549,0-3.182-0.58-4.632-1.135
		c-1.843-0.715-4.4-3.102-5.233-4.941c-1.342-3.029-1.535-6.512-0.142-9.539c0.882-1.874,2.491-4.049,4.671-5.105
		c2.536-1.212,5.31-1.249,7.427-0.611c0.793,0.247,1.473,0.497,2.06,0.752c0.631,0.271,2.252-0.163,0.504-1.892
		c-1.856-1.875-4.812-2.354-6.866-2.354c-2.565,0-4.675,0.318-7.253,1.623c-2.928,1.482-5.208,3.902-6.573,6.85
		c-1.17,2.488-1.795,5.573-1.795,8.316c0,9.072,5.978,15.199,14.62,17.091c9.823,2.146,20.445-4.279,24.23-13.326
		c4.043-9.681,0.776-21.95-7.706-28.225c-8.988-6.636-22.106-8.076-32.485-3.894c-2.819,1.15-5.669,2.71-8.093,4.527
		c-2.414,1.816-4.55,4.518-6.515,6.828c-8.275,9.728-11.74,29.392-11.104,42.086c0.35,6.988,3.7,29.679,6.641,48.68L783.314,366.896
		z"/>
	<path fill="#416EA7" d="M782.159,352.63c-1.477-17.401-3.33-37.081-4.233-46.949c-0.555-6.081-0.25-13.025,1.928-18.764
		c1.637-4.306,4.54-8.212,8.712-10.338c5.601-2.819,12.589-2.69,18.285,0.12c2.514,1.244,4.107,2.683,5.687,5.079
		c1.931,2.902,1.949,6.418,1.397,9.826c-0.154,1.022-0.563,2.021-0.949,2.989c-0.941,2.29-2.398,3.992-4.914,5.417
		c-1.799,1.025-3.238,1.674-5.879,1.674c-1.549,0-3.182-0.58-4.632-1.135c-1.843-0.715-4.4-3.102-5.233-4.941
		c-1.342-3.029-1.535-6.512-0.142-9.539c0.882-1.874,2.491-4.049,4.671-5.105c2.536-1.212,5.31-1.249,7.427-0.611
		c0.793,0.247,1.473,0.497,2.06,0.752c0.631,0.271,2.252-0.163,0.504-1.892c-1.856-1.875-4.812-2.354-6.866-2.354
		c-2.565,0-4.675,0.318-7.253,1.623c-2.928,1.482-5.208,3.902-6.573,6.85c-1.17,2.488-1.795,5.573-1.795,8.316
		c0,9.072,5.978,15.199,14.62,17.091c9.823,2.146,20.445-4.279,24.23-13.326c4.043-9.681,0.776-21.95-7.706-28.225
		c-8.988-6.636-22.106-8.076-32.485-3.894c-2.819,1.15-5.669,2.71-8.093,4.527c-2.414,1.816-4.55,4.518-6.515,6.828
		c-8.275,9.728-11.74,29.392-11.104,42.086c0.27,5.401,2.337,20.167,4.612,35.369L782.159,352.63z"/>
	<path fill="#E98E03" d="M781.274,342.497c-1.271-14.424-2.602-28.829-3.349-36.815c-0.555-6.081-0.25-13.025,1.928-18.764
		c1.637-4.306,4.54-8.212,8.712-10.338c5.601-2.819,12.589-2.69,18.285,0.12c2.514,1.244,4.107,2.683,5.687,5.079
		c1.931,2.902,1.949,6.418,1.397,9.826c-0.154,1.022-0.563,2.021-0.949,2.989c-0.941,2.29-2.398,3.992-4.914,5.417
		c-1.799,1.025-3.238,1.674-5.879,1.674c-1.549,0-3.182-0.58-4.632-1.135c-1.843-0.715-4.4-3.102-5.233-4.941
		c-1.342-3.029-1.535-6.512-0.142-9.539c0.882-1.874,2.491-4.049,4.671-5.105c2.536-1.212,5.31-1.249,7.427-0.611
		c0.793,0.247,1.473,0.497,2.06,0.752c0.631,0.271,2.252-0.163,0.504-1.892c-1.856-1.875-4.812-2.354-6.866-2.354
		c-2.565,0-4.675,0.318-7.253,1.623c-2.928,1.482-5.208,3.902-6.573,6.85c-1.17,2.488-1.795,5.573-1.795,8.316
		c0,9.072,5.978,15.199,14.62,17.091c9.823,2.146,20.445-4.279,24.23-13.326c4.043-9.681,0.776-21.95-7.706-28.225
		c-8.988-6.636-22.106-8.076-32.485-3.894c-2.819,1.15-5.669,2.71-8.093,4.527c-2.414,1.816-4.55,4.518-6.515,6.828
		c-8.275,9.728-11.74,29.392-11.104,42.086c0.204,4.088,1.432,13.556,3.006,24.503L781.274,342.497z"/>
	<path fill="#416EA7" d="M779.947,327.698c-0.799-8.886-1.545-16.805-2.021-22.017c-0.555-6.081-0.25-13.025,1.928-18.764
		c1.637-4.306,4.54-8.212,8.712-10.338c5.601-2.819,12.589-2.69,18.285,0.12c2.514,1.244,4.107,2.683,5.687,5.079
		c1.931,2.902,1.949,6.418,1.397,9.826c-0.154,1.022-0.563,2.021-0.949,2.989c-0.941,2.29-2.398,3.992-4.914,5.417
		c-1.799,1.025-3.238,1.674-5.879,1.674c-1.549,0-3.182-0.58-4.632-1.135c-1.843-0.715-4.4-3.102-5.233-4.941
		c-1.342-3.029-1.535-6.512-0.142-9.539c0.882-1.874,2.491-4.049,4.671-5.105c2.536-1.212,5.31-1.249,7.427-0.611
		c0.793,0.247,1.473,0.497,2.06,0.752c0.631,0.271,2.252-0.163,0.504-1.892c-1.856-1.875-4.812-2.354-6.866-2.354
		c-2.565,0-4.675,0.318-7.253,1.623c-2.928,1.482-5.208,3.902-6.573,6.85c-1.17,2.488-1.795,5.573-1.795,8.316
		c0,9.072,5.978,15.199,14.62,17.091c9.823,2.146,20.445-4.279,24.23-13.326c4.043-9.681,0.776-21.95-7.706-28.225
		c-8.988-6.636-22.106-8.076-32.485-3.894c-2.819,1.15-5.669,2.71-8.093,4.527c-2.414,1.816-4.55,4.518-6.515,6.828
		c-8.275,9.728-11.74,29.392-11.104,42.086c0.097,2.04,0.459,5.432,0.979,9.678L779.947,327.698"/>
	<path fill="#E98E03" d="M778.963,316.855c-0.42-4.395-0.762-8.227-1.037-11.174c-0.555-6.081-0.25-13.025,1.928-18.764
		c1.637-4.306,4.54-8.212,8.712-10.338c5.601-2.819,12.589-2.69,18.285,0.12c2.514,1.244,4.107,2.683,5.687,5.079
		c1.931,2.902,1.949,6.418,1.397,9.826c-0.154,1.022-0.563,2.021-0.949,2.989c-0.941,2.29-2.398,3.992-4.914,5.417
		c-1.799,1.025-3.238,1.674-5.879,1.674c-1.549,0-3.182-0.58-4.632-1.135c-1.843-0.715-4.4-3.102-5.233-4.941
		c-1.342-3.029-1.535-6.512-0.142-9.539c0.882-1.874,2.491-4.049,4.671-5.105c2.536-1.212,5.31-1.249,7.427-0.611
		c0.793,0.247,1.473,0.497,2.06,0.752c0.631,0.271,2.252-0.163,0.504-1.892c-1.856-1.875-4.812-2.354-6.866-2.354
		c-2.565,0-4.675,0.318-7.253,1.623c-2.928,1.482-5.208,3.902-6.573,6.85c-1.17,2.488-1.795,5.573-1.795,8.316
		c0,9.072,5.978,15.199,14.62,17.091c9.823,2.146,20.445-4.279,24.23-13.326c4.043-9.681,0.776-21.95-7.706-28.225
		c-8.988-6.636-22.106-8.076-32.485-3.894c-2.819,1.15-5.669,2.71-8.093,4.527c-2.414,1.816-4.55,4.518-6.515,6.828
		c-7.92,9.333-11.44,27.79-11.172,40.496L778.963,316.855"/>
	<path fill="#416EA7" d="M777.926,305.682c-0.555-6.081-0.25-13.025,1.928-18.764c1.637-4.306,4.54-8.212,8.712-10.338
		c5.601-2.819,12.589-2.69,18.285,0.12c2.514,1.244,4.107,2.683,5.687,5.079c1.931,2.902,1.949,6.418,1.397,9.826
		c-0.154,1.022-0.563,2.021-0.949,2.989c-0.941,2.29-2.398,3.992-4.914,5.417c-1.799,1.025-3.238,1.674-5.879,1.674
		c-1.549,0-3.182-0.58-4.632-1.135c-1.843-0.715-4.4-3.102-5.233-4.941c-1.342-3.029-1.535-6.512-0.142-9.539
		c0.882-1.874,2.491-4.049,4.671-5.105c2.536-1.212,5.31-1.249,7.427-0.611c0.793,0.247,1.473,0.497,2.06,0.752
		c0.631,0.271,2.252-0.163,0.504-1.892c-1.856-1.875-4.812-2.354-6.866-2.354c-2.565,0-4.675,0.318-7.253,1.623
		c-2.928,1.482-5.208,3.902-6.573,6.85c-1.17,2.488-1.795,5.573-1.795,8.316c0,9.072,5.978,15.199,14.62,17.091
		c9.823,2.146,20.445-4.279,24.23-13.326c4.043-9.681,0.776-21.95-7.706-28.225c-8.988-6.636-22.106-8.076-32.485-3.894
		c-2.819,1.15-5.669,2.71-8.093,4.527c-2.414,1.816-4.55,4.518-6.515,6.828c-5.44,6.411-8.812,17.097-10.279,27.288L777.926,305.682
		z"/>
	<path fill="#E98E03" d="M778.052,294.396c0.343-2.596,0.917-5.138,1.802-7.478c1.637-4.306,4.54-8.212,8.712-10.338
		c5.601-2.819,12.589-2.69,18.285,0.12c2.514,1.244,4.107,2.683,5.687,5.079c1.931,2.902,1.949,6.418,1.397,9.826
		c-0.154,1.022-0.563,2.021-0.949,2.989c-0.941,2.29-2.398,3.992-4.914,5.417c-1.799,1.025-3.238,1.674-5.879,1.674
		c-1.549,0-3.182-0.58-4.632-1.135c-1.843-0.715-4.4-3.102-5.233-4.941c-1.342-3.029-1.535-6.512-0.142-9.539
		c0.882-1.874,2.491-4.049,4.671-5.105c2.536-1.212,5.31-1.249,7.427-0.611c0.793,0.247,1.473,0.497,2.06,0.752
		c0.631,0.271,2.252-0.163,0.504-1.892c-1.856-1.875-4.812-2.354-6.866-2.354c-2.565,0-4.675,0.318-7.253,1.623
		c-2.928,1.482-5.208,3.902-6.573,6.85c-1.17,2.488-1.795,5.573-1.795,8.316c0,9.072,5.978,15.199,14.62,17.091
		c9.823,2.146,20.445-4.279,24.23-13.326c4.043-9.681,0.776-21.95-7.706-28.225c-8.988-6.636-22.106-8.076-32.485-3.894
		c-2.819,1.15-5.669,2.71-8.093,4.527c-2.414,1.816-4.55,4.518-6.515,6.828c-3.326,3.911-5.883,9.44-7.692,15.453L778.052,294.396z"
		/>
	<path fill="#416EA7" d="M765.309,281.142c0.66,0.004,15.652,3.302,15.652,3.302c1.715-3.3,4.246-6.166,7.604-7.865
		c5.601-2.819,12.589-2.69,18.285,0.12c2.514,1.244,4.107,2.683,5.687,5.079c1.931,2.902,1.949,6.418,1.397,9.826
		c-0.154,1.022-0.563,2.021-0.949,2.989c-0.941,2.29-2.398,3.992-4.914,5.417c-1.799,1.025-3.238,1.674-5.879,1.674
		c-1.549,0-3.182-0.58-4.632-1.135c-1.843-0.715-4.4-3.102-5.233-4.941c-1.342-3.029-1.535-6.512-0.142-9.539
		c0.882-1.874,2.491-4.049,4.671-5.105c2.536-1.212,5.31-1.249,7.427-0.611c0.793,0.247,1.473,0.497,2.06,0.752
		c0.631,0.271,2.252-0.163,0.504-1.892c-1.856-1.875-4.812-2.354-6.866-2.354c-2.565,0-4.675,0.318-7.253,1.623
		c-2.928,1.482-5.208,3.902-6.573,6.85c-1.17,2.488-1.795,5.573-1.795,8.316c0,9.072,5.978,15.199,14.62,17.091
		c9.823,2.146,20.445-4.279,24.23-13.326c4.043-9.681,0.776-21.95-7.706-28.225c-8.988-6.636-22.106-8.076-32.485-3.894
		c-2.819,1.15-5.669,2.71-8.093,4.527c-2.414,1.816-6.515,6.828-6.515,6.828"/>
	<path fill="#FFFFFF" stroke="#231F20" stroke-width="2" stroke-miterlimit="10" d="M768.411,276.647"/>
	<path fill="#FFFFFF" stroke="#231F20" stroke-width="2" stroke-miterlimit="10" d="M773.22,271.323"/>
	<path fill="#E98E03" d="M783.787,280.311c1.349-1.513,2.939-2.798,4.778-3.731c5.601-2.819,12.589-2.69,18.285,0.12
		c2.514,1.244,4.107,2.683,5.687,5.079c1.931,2.902,1.949,6.418,1.397,9.826c-0.154,1.022-0.563,2.021-0.949,2.989
		c-0.941,2.29-2.398,3.992-4.914,5.417c-1.799,1.025-3.238,1.674-5.879,1.674c-1.549,0-3.182-0.58-4.632-1.135
		c-1.843-0.715-4.4-3.102-5.233-4.941c-1.342-3.029-1.535-6.512-0.142-9.539c0.882-1.874,2.491-4.049,4.671-5.105
		c2.536-1.212,5.31-1.249,7.427-0.611c0.793,0.247,1.473,0.497,2.06,0.752c0.631,0.271,2.252-0.163,0.504-1.892
		c-1.856-1.875-4.812-2.354-6.866-2.354c-2.565,0-4.675,0.318-7.253,1.623c-2.928,1.482-5.208,3.902-6.573,6.85
		c-1.17,2.488-1.795,5.573-1.795,8.316c0,9.072,5.978,15.199,14.62,17.091c9.823,2.146,20.445-4.279,24.23-13.326
		c4.043-9.681,0.776-21.95-7.706-28.225c-8.988-6.636-22.106-8.076-32.485-3.894c-2.819,1.15-5.669,2.71-8.093,4.527
		c-0.512,0.383-1.113,0.909-1.706,1.503L783.787,280.311z"/>
	<path fill="#416EA7" d="M788.565,276.58c5.601-2.819,12.589-2.69,18.285,0.12c2.514,1.244,4.107,2.683,5.687,5.079
		c1.931,2.902,1.949,6.418,1.397,9.826c-0.154,1.022-0.563,2.021-0.949,2.989c-0.941,2.29-2.398,3.992-4.914,5.417
		c-1.799,1.025-3.238,1.674-5.879,1.674c-1.549,0-3.182-0.58-4.632-1.135c-1.843-0.715-4.4-3.102-5.233-4.941
		c-1.342-3.029-1.535-6.512-0.142-9.539c0.882-1.874,2.491-4.049,4.671-5.105c2.536-1.212,5.31-1.249,7.427-0.611
		c0.793,0.247,1.473,0.497,2.06,0.752c0.631,0.271,2.252-0.163,0.504-1.892c-1.856-1.875-4.812-2.354-6.866-2.354
		c-2.565,0-4.675,0.318-7.253,1.623c-2.928,1.482-5.208,3.902-6.573,6.85c-1.17,2.488-1.795,5.573-1.795,8.316
		c0,9.072,5.978,15.199,14.62,17.091c9.823,2.146,20.445-4.279,24.23-13.326c4.043-9.681,0.776-21.95-7.706-28.225
		c-8.988-6.636-22.106-8.076-32.485-3.894L788.565,276.58z"/>
	<path display="none" fill="#EE5929" d="M794.627,274.723c4.131-0.566,8.472,0.116,12.224,1.977
		c2.514,1.244,4.107,2.683,5.687,5.079c1.931,2.902,1.949,6.418,1.397,9.826c-0.154,1.022-0.563,2.021-0.949,2.989
		c-0.941,2.29-2.398,3.992-4.914,5.417c-1.799,1.025-3.238,1.674-5.879,1.674c-1.549,0-3.182-0.58-4.632-1.135
		c-1.843-0.715-4.4-3.102-5.233-4.941c-1.342-3.029-1.535-6.512-0.142-9.539c0.882-1.874,2.491-4.049,4.671-5.105
		c2.536-1.212,5.31-1.249,7.427-0.611c0.793,0.247,1.473,0.497,2.06,0.752c0.631,0.271,2.252-0.163,0.504-1.892
		c-1.856-1.875-4.812-2.354-6.866-2.354c-2.565,0-4.675,0.318-7.253,1.623c-2.928,1.482-5.208,3.902-6.573,6.85
		c-1.17,2.488-1.795,5.573-1.795,8.316c0,9.072,5.978,15.199,14.62,17.091c9.823,2.146,20.445-4.279,24.23-13.326
		c4.043-9.681,0.776-21.95-7.706-28.225c-5.92-4.366-13.632-6.485-21.17-6.222L794.627,274.723z"/>
	<g>
		<path fill="#FFFFFF" stroke="#231F20" stroke-width="2" stroke-miterlimit="10" d="M440.158,383.669
			c-3.556-8.737-9.121-16.935-15.633-23.104c-9.824-9.292-21.807-14.063-32.294-17.807c-2.263-0.808-4.562-1.538-6.845-2.272
			c-0.806-0.246-1.602-0.506-2.408-0.777c-0.004-0.107-0.008-0.225-0.004-0.32c0.049-0.52,0.098-1.039,0.156-1.556l0.67-7.337
			c0.277-2.844,0.545-5.689,0.79-8.527l0.919-9.885c0.192-2.042,0.959-10.644,0.959-10.644l0.354-3.802
			c0.206-2.18,0.412-4.367,0.602-6.55l0.151-1.851c0.21-2.416,0.409-4.83,0.655-7.244c0.236-2.545,0.434-5.087,0.613-7.642
			c0.24-3.461,0.944-15.245,0.285-21.662c-0.947-9.37-2.925-16.485-6.051-21.75c-4.932-8.264-14.346-13.406-24.61-13.406
			c-7.058,0-13.595,2.582-17.925,7.055c-4.062,4.213-6.079,9.881-5.852,16.436c0.188,3.919,1.1,7.101,2.891,9.984
			c0.707,1.173,2.113,2.946,3.447,4.046c1.953,1.611,3.685,2.85,5.812,3.593c1.295,0.457,3.283,0.352,5.447,1.352
			c0.072,0,0.158,0,0.211,0c-0.032,0-0.061,0.21-0.108,0.369l-3.817,18.663c-1.045,5.136-2.158,10.189-3.275,15.244l-1.104,5.001
			c-1.116,5.021-2.229,10.02-3.257,15.075c-0.319,1.598-0.694,3.143-1.061,4.697c-0.44,1.848-0.87,3.687-1.236,5.589l-0.156,0.754
			c-2.316,12.029-4.352,22.413-6.082,35.364c-0.357,2.641-1.869,14.297-2.174,17.999c-0.299,3.657-0.414,7.592-0.551,11.381
			c-0.055,2.148-0.131,4.213-0.229,6.07c-0.278,5.34,0.024,10.133,0.46,15.832c0.324,4.443,0.716,7.801,1.43,11.997
			c1.234,7.32,3.357,14.266,6.715,21.826c3.227,7.364,7.729,13.497,13.77,18.732c7.242,6.298,16.164,10.384,26.531,12.583
			c3.262,0.695,6.662,0.822,10.082,0.822c0,0,0,0,0.002,0c7.564,0,15.354-1.492,22.535-4.74
			c10.078-4.576,18.352-11.85,24.562-21.839c1.561-2.507,2.94-5.175,4.137-8.073c4.049-9.858,6.154-20.995,6.084-32.234
			C445.711,401.944,443.771,392.467,440.158,383.669z M413.23,413.538c-1.001,5.698-3.189,11.331-7.004,15.66
			c-3.795,4.332-8.531,8.166-14.096,10.05c-5.257,1.764-11.469,1.686-16.73-0.069c-0.988-0.351-3.883-1.802-4.358-2.857
			c-0.331-0.743,0.256-20.925,0.2-24.089c-0.116-6.927,0.26-13.872,0.236-20.772c-0.045-5.976-0.051-11.951,0.115-17.914
			c0.078-2.889,0.074-8.783,0.074-8.83c0,0,1.727-2.38,2.804-2.49c5.014-0.494,9.811,1.781,14.192,3.793
			c4.391,2.013,8.334,4.785,11.896,8.069c1.922,1.778,3.59,3.809,5.01,5.999c1.432,2.211,2.727,4.56,3.873,6.932
			C413.342,395.015,414.782,404.764,413.23,413.538z"/>
		<path fill="#FFBF63" d="M435.859,385.451c-3.223-7.871-8.339-15.635-14.541-21.491c-8.752-8.286-19.467-12.809-30.662-16.807
			c-3.252-1.16-6.578-2.162-9.863-3.238c-2.829-0.917-2.475-4.837-2.465-4.904c0.072-0.941,0.183-1.881,0.268-2.822
			c0.188-2.045,0.367-4.089,0.559-6.134c0.279-2.84,0.539-5.68,0.789-8.51c0.293-3.296,0.623-6.596,0.924-9.897
			c0.324-3.542,0.639-7.093,0.955-10.631c0.307-3.443,0.658-6.883,0.951-10.325c0.257-3.053,0.498-6.108,0.814-9.146
			c0.236-2.508,0.438-5.002,0.598-7.506c0.102-1.483,0.963-14.44,0.311-20.883c-0.669-6.55-2.026-14.115-5.428-19.827
			c-10.053-16.893-40.511-14.643-39.727,7.479c0.14,2.835,0.701,5.31,2.207,7.739c0.542,0.906,1.625,2.232,2.457,2.911
			c1.404,1.169,2.658,1.95,4.373,2.549c1.312,0.446,2.752,0.793,4.117,0.857c1.26,0.058,2.535-0.186,3.744-0.578
			c0.691-0.228,1.357-0.591,2.072-0.953c-0.325,1.537-1.031,6.202-1.357,7.74c-1.289,6.388-2.512,12.385-3.81,18.769
			c-1.056,5.167-2.168,10.289-3.3,15.369c-1.465,6.702-5.954,26.824-6.633,30.308c-2.4,12.387-4.439,22.769-6.194,35.861
			c-0.39,2.97-1.856,14.269-2.14,17.749c-0.468,5.657-0.506,12.253-0.767,17.321c-0.271,5.147,0.03,9.856,0.444,15.251
			c0.33,4.505,0.748,7.726,1.365,11.568c1.254,7.344,3.376,13.888,6.398,20.716c2.94,6.695,6.951,12.233,12.549,17.091
			c7.003,6.089,15.424,9.846,24.475,11.767c9.938,2.119,20.486,0.556,29.703-3.617c9.532-4.316,17.022-11.319,22.545-20.17
			c1.457-2.366,2.703-4.851,3.758-7.419c3.922-9.558,5.809-20.15,5.752-30.463C441.061,402.397,439.182,393.559,435.859,385.451z
			 M413.23,413.538c-1.001,5.698-3.189,11.331-7.004,15.66c-3.795,4.332-8.531,8.166-14.096,10.05
			c-5.257,1.764-11.469,1.686-16.73-0.069c-0.988-0.351-3.883-1.802-4.358-2.857c-0.331-0.743,0.256-20.925,0.2-24.089
			c-0.116-6.927,0.26-13.872,0.236-20.772c-0.045-5.976-0.051-11.951,0.115-17.914c0.078-2.889,0.074-8.783,0.074-8.83
			c0,0,1.727-2.38,2.804-2.49c5.014-0.494,9.811,1.781,14.192,3.793c4.391,2.013,8.334,4.785,11.896,8.069
			c1.922,1.778,3.59,3.809,5.01,5.999c1.432,2.211,2.727,4.56,3.873,6.932C413.342,395.015,414.782,404.764,413.23,413.538z"/>
		<path fill="#466CB7" d="M410.693,365.204c-6.364-5.364-15.355-9.423-26.478-12.37c-3.341-0.889-6.393-1.399-9.106-2.397
			c-2.607-0.959-2.215-4.298-2.215-4.298c0.004-0.054,1.465-16.516,1.73-19.429c0.537-5.893,1.26-14.159,1.795-20.046
			c0.594-6.693,1.348-13.205,1.953-19.896c0.443-5.175,0.99-9.858,1.39-15.041c0.484-6.391,1.097-11.217,0.922-17.877
			c-0.179-6.601-1.237-14.074-5.419-19.348c-9.137-11.481-27.32-12.659-30.507,2.866c-0.315,1.261-0.354,2.737-0.169,4.003
			c0.889,5.426,4.301,8.478,8.931,9.042c2.542,0.301,4.423-0.695,6.069-2.169c2.182-1.955,2.404-5.438,1.237-8.776
			c3.083,0.596,4.594,4.252,3.837,8.891c-0.336,1.991-4.861,24.24-5.969,30.271c-0.92,4.884-1.889,9.636-2.842,14.449
			c-1.758,8.724-3.492,17.438-5.395,26.127c-1.101,4.989-2.229,9.964-3.284,14.962c-2.862,13.458-4.453,21.417-5.896,35.098
			c-0.546,5.153-1.155,15.299-1.421,20.099c-0.269,4.89-0.075,9.435,0.097,14.549c0.109,3.69,0.476,7.401,0.966,11.037
			c0.954,6.983,2.537,13.929,4.935,20.44c2.359,6.367,5.739,12.306,10.385,16.812c3.826,3.73,8.025,7.221,12.738,9.078
			c2.693,1.037,7.154,2.562,9.939,3.101c5.332,1.028,9.632,1.096,14.629,0.205c4.916-0.882,10.523-2.416,15.57-5.669
			c3.312-2.129,6.854-4.727,10.637-9.437c3.342-4.185,6.186-8.957,8.006-12.746c3.047-6.325,4.617-10.999,5.533-18.975
			C435.572,397.614,427.672,379.533,410.693,365.204z M413.23,413.538c-1.001,5.698-3.189,11.331-7.004,15.66
			c-3.795,4.332-8.531,8.166-14.096,10.05c-5.257,1.764-11.469,1.686-16.73-0.069c-0.988-0.351-3.883-1.802-4.358-2.857
			c-0.331-0.743,0.256-20.925,0.2-24.089c-0.116-6.927,0.26-13.872,0.236-20.772c-0.045-5.976-0.051-11.951,0.115-17.914
			c0.078-2.889,0.074-8.783,0.074-8.83c0,0,1.727-2.38,2.804-2.49c5.014-0.494,9.811,1.781,14.192,3.793
			c4.391,2.013,8.334,4.785,11.896,8.069c1.922,1.778,3.59,3.809,5.01,5.999c1.432,2.211,2.727,4.56,3.873,6.932
			C413.342,395.015,414.782,404.764,413.23,413.538z"/>
		<path id="inner_b_1_" fill="#466CB7" d="M380.559,261.604c0.131-2.422,0.205-4.915,0.126-7.755
			c-0.179-6.601-1.237-14.074-5.419-19.348c-9.137-11.481-27.32-12.659-30.507,2.866c-0.315,1.261-0.354,2.737-0.169,4.003
			c0.889,5.426,4.301,8.478,8.931,9.042c2.542,0.301,4.423-0.695,6.069-2.169c2.182-1.955,2.404-5.438,1.237-8.776
			c3.083,0.596,4.594,4.252,3.837,8.891c-0.152,0.889-1.139,5.809-2.269,11.52L380.559,261.604z"/>
		<path fill="#EF5430" d="M372.514,347.169c-7.148-0.583-10.381-1.359-17.861-4.171c-6.738-2.529-10.902-5.766-13.362-7.395
			c0,0,14.423-9.087,33.069-6.344c-9.832-2.463-19.493-6.435-22.092-7.883c-2.572-1.438-5.363-3.504-5.363-3.504
			s10.793-6.234,28.868-4.066c-4.766-1.601-17.073-4.19-24.17-12.726c6.521-3.908,12.062-7.412,26.071-7.412
			c-6.344-0.875-18.924-5.018-21.373-10.643c3.913-3.751,12.271-7.531,22.975-6.232c-7.826-0.688-15.53-5.345-18.08-9.831
			c5.42-3.882,9.801-5.407,19.311-4.118"/>
		<path fill="#EF5430" d="M371.954,345.449c0,0-0.434-0.265-2.334,0.169c-1.929,0.437-9.291,7.282-17.273,8.068
			c-7.982,0.778-13.273,0.693-15.533-0.354c-0.796-0.369-1.631-0.715-2.297-1.316c-0.561-0.509-1.133-0.676-1.812-0.148
			c-0.771,0.6-0.919,2.953,3.508,7.71c4.426,4.774,12.754,9.893,24.641,12.58c11.893,2.694,9.837,1.543,9.837,1.543l1.525-0.066
			v-8.416c0-0.352-1.052-2.508,2.648-2.995c2.998-0.394,12.752,3.865,12.752,3.865l3.821-10.713c0,0-3.215-1.188-5.586-1.837
			c-1.982-0.54-5.582-1.554-7.564-1.921c-0.976-0.182-3.545-1.02-4.202-1.339c-1.003-0.527-1.967-1.293-2.09-2.9
			C371.86,345.744,371.954,345.449,371.954,345.449z"/>
		<path fill="#EF5430" d="M431.455,406.566c9.833-1.446,14.535-6.746,15.047-7.944c-11.455-7.518-23.146-5.124-27.855-4.271
			c11.869-5.296,18.199-15.197,19.138-17.682c-3.152,0.934-3.253,0.686-10.683,1.539c-7.43,0.852-14.104,4.694-14.104,4.694
			c7.448-5.464,13.157-16.055,13.773-19.463c-10.944,1.098-17.513,7.592-19.134,8.789c5.975-5.82,8.445-17.766,8.103-19.738
			c-0.854,1.2-1.704,2.394-6.154,4.704c-4.444,2.303-7.862,6.056-9.565,8.025c2.4-4.964,1.967-15.376,1.62-19.471
			c-1.097,1.974-3.661,4.951-8.284,9.907c-3.666,3.94-4.854,8.452-5.188,10.137c0.166,0.076,0.332,0.153,0.497,0.229
			c4.391,2.013,8.334,4.785,11.896,8.069c1.922,1.778,3.59,3.809,5.01,5.999c1.432,2.211,2.727,4.56,3.873,6.932
			c3.898,7.995,5.339,17.744,3.787,26.519c-1.001,5.698-3.189,11.331-7.004,15.66c-3.795,4.332-8.531,8.166-14.096,10.05
			c-5.257,1.764-11.469,1.686-16.73-0.069c-0.988-0.351-3.883-1.802-4.358-2.857c-0.331-0.743,0.256-20.925,0.2-24.089
			c-0.116-6.927,0.26-13.872,0.236-20.772c-0.045-5.976-0.051-11.951,0.115-17.914c0.015-0.545,0.026-1.198,0.036-1.898
			c-0.471-0.034-0.939-0.066-1.437-0.109c-22.102-1.875-31.281,3.05-37.674,5.732c7.043,4.343,26.047,5.396,35.369,6.088
			c-26.047-0.86-33.957,4.005-37.025,6.049c7.295,4.09,27.594,5.149,36.129,5.754c-23.914-0.939-37.408,7.403-37.408,7.403
			c1.93,1.407,6.395,3.2,12.271,4.61c9.878,2.367,24.069,1.57,24.337,1.527c0.557-0.092,0.482,0.677,0.482,0.677
			c0,0.76-0.576,0.474-0.737,0.472c-1.177-0.066-4.946-0.2-6.157-0.111c-4.293,0.307-5.867,0.492-10.117,1.21
			c-3.189,0.536-6.297,1.507-9.385,2.559c-2.746,0.957-9.691,5.992-10.221,6.559c0,0,1.187,0.651,9.365,2.543
			c11.324,2.611,24.473,0.966,24.473,0.966s0.504,0.42,0.146,1.022c-16.035,0-26.72,8.883-30.657,12.733
			c21.531,1.371,22.896,0.25,29.219-0.691c-13.924,7.354-19.569,18.524-21.183,22.133c25.71-8.388,26.31-12.826,29.722-14.779
			c-8.621,19.215-7.101,28.616-6.746,30.746c10.344-11.273,14.523-25.456,14.523-25.456s0.82-2.649,0.764-0.167
			c-0.332,17.93,0.94,18.877,4.71,29.822c5.548-15.299,6.497-24.872,7.001-31.45c1.963,19.147,10.162,29.817,11.622,31.45
			c2.04-19.919-1.112-29.566-2.144-32.472c8.975,17.679,23.34,20.764,23.246,20.169c-4.445-18.209-15.036-27.175-15.036-27.175
			s0,0,0.683-0.759c16.061,11.178,24.251,10.926,25.809,10.827c-9.92-15.021-20.516-17.405-20.516-17.405l0.419-1.237
			c0.342,0.111,1.806,0.465,7.095,1.556c8.643,1.799,18.216-0.587,19.657-1.266c-10.074-9.91-19.573-10.171-22.374-11.023
			c6.216,1.038,16.518-0.67,18.447-1.2c2.1-0.557,4.359-1.446,6.486-2.227c-1.027-0.502-6.748-3.49-6.748-3.49
			c-11.619-5.298-18.709-4.277-18.709-4.277l0.178-1.111C419.508,407.849,421.645,408.03,431.455,406.566z"/>
		<path fill="none" stroke="#231F20" stroke-width="2" stroke-miterlimit="10" d="M371.668,364.717c0,0,1.727-2.38,2.804-2.49
			c5.014-0.494,9.811,1.781,14.192,3.793c4.391,2.013,8.334,4.785,11.896,8.069c1.922,1.778,3.59,3.809,5.01,5.999
			c1.432,2.211,2.727,4.56,3.873,6.932c3.898,7.995,5.339,17.744,3.787,26.519c-1.001,5.698-3.189,11.331-7.004,15.66
			c-3.795,4.332-8.531,8.166-14.096,10.05c-5.257,1.764-11.469,1.686-16.73-0.069c-0.988-0.351-3.883-1.802-4.358-2.857
			c-0.331-0.743,0.256-20.925,0.2-24.089c-0.116-6.927,0.26-13.872,0.236-20.772c-0.045-5.976-0.051-11.951,0.115-17.914
			C371.672,370.658,371.668,364.763,371.668,364.717z"/>
	</g>
	<path fill="#FFFFFF" stroke="#000000" stroke-width="2" stroke-miterlimit="10" d="M760.61,425.662
		c0,16.76,5.705,7.616,5.705,12.759c0,5.429-7.423,11.336-14.383,11.336c-7.516,0-7.708-4.851-10.082-4.851
		c-1.14,0-2.377,1.23-4.478,2.379c-2.103,1.237-4.956,2.472-9.342,2.472c-7.91,0-15.807-4.195-15.807-13.621
		c0-6.77,6.469-15.148,23.235-15.148c2.95,0,4.3,0.205,4.3-3.232c0-3.141-0.093-9.717-4.489-9.717
		c-5.709,0-6.282,10.287-14.77,10.287c-3.038,0-5.326-2.192-5.326-5.243c0-8.096,16.099-13.332,25.153-13.332
		c5.424,0,20.282,2.094,20.282,16.383V425.662z M732.036,434.045c0,2.48,1.331,5.14,4.086,5.14c3.638,0,3.928-3.9,3.928-6.768
		c0-2.091,0.09-4.469-2.592-4.469C734.219,427.948,732.036,430.993,732.036,434.045z"/>
	<path fill="#FFFFFF" stroke="#000000" stroke-width="2" stroke-miterlimit="10" d="M473.727,427.864
		c0,3.799,0.29,9.691,5.438,9.691c6.864,0,5.905-8.946,5.905-13.512c0-3.14,0.1-7.244-0.395-10.297
		c-0.762-4.755-5.424-3.14-5.424-7.135c0-5.624,19.135-6.578,22.779-6.578c3.418,0,4.846,2.003,4.846,5.332
		c0,3.055-0.188,6.004-0.188,9.04v19.164c0,5.709,5.236,3.039,5.236,7.621c0,6.468-16.859,8.282-22.098,8.282
		c-7.344,0-2.469-5.719-6.294-5.719c-1.05,0-2.571,1.42-4.849,2.863c-2.293,1.428-5.335,2.855-9.52,2.855
		c-18.117,0-16.591-14.288-16.591-28.569c0-14.591-6.56-8.188-6.56-14.498c0-6.088,24.002-6.372,24.775-6.372
		c2.65,0,2.936,1.24,2.936,3.628V427.864z"/>
</g>
</svg>
